<svg xmlns="http://www.w3.org/2000/svg" viewBox="0 0 465.28 443.55"><defs><style>.cls-1{fill:#e0e0e0;}.cls-2{fill:none;}.cls-3{fill:#ebebeb;fill-rule:evenodd;}.cls-4{fill:#455a64;}.cls-5{fill:#263238;}.cls-6{fill:#b78876;}.cls-7{fill:#aa6550;}.cls-8{fill:#fff;}.cls-9{fill:#00b5ec;}.cls-10{fill:#fafafa;}.cls-11{opacity:0.3;}.cls-12{fill:#f5f5f5;}.cls-13{opacity:0.4;}</style></defs><g id="Слой_2" data-name="Слой 2"><g id="Background_Complete" data-name="Background Complete"><path class="cls-1" d="M360.7,2.91A2.91,2.91,0,1,1,357.79,0,2.91,2.91,0,0,1,360.7,2.91Z"/><path class="cls-1" d="M376,199.19s0-.14,0-.4,0-.69,0-1.2c0-1.07,0-2.61,0-4.6,0-4,0-9.86-.07-17.13,0-14.59-.06-35-.09-58.18l.05.16-12.46-15.09c-1.92-2.31-3.81-4.61-5.59-6.77l-.06-.07v-.09c0-25.89.06-49,.08-65.58,0-8.29.06-15,.08-19.59,0-2.29,0-4.07,0-5.3,0-.59,0-1,0-1.38s0-.46,0-.46,0,.15,0,.46,0,.79,0,1.38c0,1.23,0,3,0,5.3,0,4.62,0,11.3.08,19.59,0,16.62.05,39.69.08,65.58l-.05-.17,5.59,6.77,12.46,15.1.06.07v.09c0,23.22-.07,43.59-.09,58.18,0,7.27-.06,13.1-.08,17.13,0,2,0,3.53,0,4.6q0,.76,0,1.2A3.15,3.15,0,0,1,376,199.19Z"/><path class="cls-2" d="M416.1,188.87a16.05,16.05,0,0,1-3,3.12l.78,3.93-6,2.68-2.39-3.21a15.92,15.92,0,0,1-4.31.11l-2.23,3.32-6.17-2.38.57-3.95a16.35,16.35,0,0,1-3.12-3l-3.93.77-2.68-6,3.21-2.39a16,16,0,0,1-.11-4.32l-3.32-2.22,2.38-6.18,4,.58a16.35,16.35,0,0,1,3-3.13l-.77-3.92,6-2.68,2.39,3.2a16.33,16.33,0,0,1,4.31-.1l2.22-3.32,6.18,2.38-.58,4a16.11,16.11,0,0,1,3.13,3l3.92-.78,2.68,6.05-3.2,2.39a16.34,16.34,0,0,1,.1,4.31l3.33,2.23-2.38,6.17-4-.57Zm-6.68-6.75a7.1,7.1,0,1,0-9.18,4.07A7.1,7.1,0,0,0,409.42,182.12Z"/><path class="cls-1" d="M409.42,182.12a5.31,5.31,0,0,1-.77,1.58,7.13,7.13,0,0,1-7.17,3,7.2,7.2,0,0,1-3.46-1.65,7.27,7.27,0,0,1-2.26-3.58,7.23,7.23,0,0,1,3.1-8,7.13,7.13,0,0,1,2-.89,6.77,6.77,0,0,1,2.08-.25,7.21,7.21,0,0,1,6,3.48,7.08,7.08,0,0,1,1,4.66,5.27,5.27,0,0,1-.49,1.69c-.05,0,.21-.59.34-1.7a7.09,7.09,0,0,0-1.05-4.5,6.93,6.93,0,0,0-5.78-3.25,6.81,6.81,0,0,0-3.85,1.1,6.93,6.93,0,0,0-2.72,3.32,7,7,0,0,0-.22,4.29,6.83,6.83,0,0,0,.83,1.89,6.73,6.73,0,0,0,1.29,1.51,7,7,0,0,0,3.28,1.6,6.91,6.91,0,0,0,3.19-.14,7,7,0,0,0,3.79-2.63A16.84,16.84,0,0,0,409.42,182.12Z"/><path class="cls-1" d="M416.1,188.87l.25,0,.75.09,3,.4-.07,0c.61-1.58,1.39-3.67,2.35-6.19l0,.13-3.33-2.22-.06,0V181a15.93,15.93,0,0,0-.13-4.28v-.08l.07,0,3.2-2.4-.05.18-2.7-6,.18.09-3.92.78-.1,0-.07-.08a16.42,16.42,0,0,0-3.09-2.94l-.09-.06,0-.1c.18-1.23.37-2.58.57-4l.11.19-6.17-2.37.22-.07-2.22,3.32-.07.1h-.11a15.72,15.72,0,0,0-4.26.11l-.12,0-.07-.1-2.39-3.2.24.06L392,162.85l.12-.23c.24,1.24.5,2.58.77,3.93l0,.12-.09.07a16.05,16.05,0,0,0-2.94,3.09h0l-.19.08h-.12l-.13,0-.25,0-.5-.07-1-.15-2-.29.22-.13q-1.21,3.13-2.38,6.18l-.08-.24,3.32,2.23.1.06v.12a16,16,0,0,0,.1,4.26l0,.12-.09.07-3.21,2.39.06-.23,2.68,6.05-.21-.11,3.92-.77.11,0,.07.09a16.19,16.19,0,0,0,3.09,2.94l.08.07v.1c-.2,1.36-.4,2.67-.59,4l-.1-.19,6.17,2.4-.19,0c.79-1.16,1.52-2.26,2.24-3.31l0-.07h.09a16.37,16.37,0,0,0,4.28-.1h.08l.05.06,2.38,3.22-.15,0,6.06-2.66-.05.1c-.3-1.57-.55-2.85-.75-3.93v0l0,0a16.69,16.69,0,0,0,2.34-2.25l.51-.62a1.24,1.24,0,0,1,.17-.2l-.15.22c-.1.15-.26.36-.48.64a15.62,15.62,0,0,1-2.3,2.31l0-.06.8,3.92V196l-.06,0-6,2.71-.09,0-.06-.08-2.4-3.2.13.05a16.42,16.42,0,0,1-4.35.13l.14-.07-2.22,3.33-.07.1-.12,0-6.18-2.37-.12,0,0-.13c.18-1.29.37-2.6.57-4l.07.17a16,16,0,0,1-3.16-3l.17.07-3.92.78-.15,0-.06-.14c-.87-2-1.77-4-2.69-6.05l-.06-.14.13-.09,3.2-2.39-.08.19a16.79,16.79,0,0,1-.11-4.37l.09.19-3.32-2.23-.14-.09.06-.15,2.38-6.17.06-.15.16,0,2,.29,1,.14.5.08.25,0,.12,0h.12l-.19.08h0a16.22,16.22,0,0,1,3-3.16l-.07.19c-.26-1.34-.53-2.68-.77-3.92l0-.16.14-.07,6.05-2.68.15-.06.1.13c.82,1.11,1.64,2.2,2.38,3.21l-.19-.08a16.55,16.55,0,0,1,4.37-.11l-.18.09c.77-1.15,1.53-2.29,2.23-3.32l.08-.13.14.06,6.17,2.39.14.05,0,.14c-.2,1.38-.4,2.73-.58,4l-.08-.17a16.55,16.55,0,0,1,3.16,3l-.17-.06,3.93-.76.13,0,.05.12c.93,2.12,1.83,4.15,2.67,6.05l0,.11-.09.07-3.21,2.38.05-.13a16,16,0,0,1,.09,4.35l-.05-.11,3.31,2.23.07,0,0,.08c-1,2.51-1.8,4.58-2.41,6.16l0,.05h-.05l-2.93-.46-.76-.13Z"/><path class="cls-3" d="M447.32,132.08a25.25,25.25,0,0,1-4.69,4.93l1.22,6.19-9.54,4.23-3.77-5.05a25.75,25.75,0,0,1-6.8.17l-3.52,5.24L410.48,144l.91-6.24a25.78,25.78,0,0,1-4.92-4.69l-6.19,1.22L396,124.78,401.1,121a25.83,25.83,0,0,1-.17-6.81l-5.24-3.51,3.76-9.74,6.24.91a25.25,25.25,0,0,1,4.69-4.93l-1.22-6.19,9.54-4.23,3.77,5.06a25.76,25.76,0,0,1,6.8-.17l3.52-5.24,9.74,3.76-.91,6.24a25.47,25.47,0,0,1,4.92,4.69l6.19-1.22,4.24,9.54-5.06,3.77a25.75,25.75,0,0,1,.17,6.8l5.24,3.51L453.56,133l-6.24-.91Zm-10.54-10.64a11.19,11.19,0,1,0-14.47,6.42A11.19,11.19,0,0,0,436.78,121.44Z"/><circle class="cls-1" cx="69.63" cy="167.73" r="3"/><path class="cls-1" d="M69.63,262.92c-.14,0-.26-20.82-.26-46.5s.12-46.51.26-46.51.26,20.82.26,46.51S69.77,262.92,69.63,262.92Z"/><path class="cls-1" d="M181.79,23.36a3,3,0,1,1-3-3A3,3,0,0,1,181.79,23.36Z"/><path class="cls-1" d="M178.79,214.47c-.15,0-.26-42.29-.26-94.46s.11-94.48.26-94.48.26,42.29.26,94.48S178.93,214.47,178.79,214.47Z"/><path class="cls-1" d="M21.56,135.38a3.21,3.21,0,1,1-3.21-3.21A3.22,3.22,0,0,1,21.56,135.38Z"/><path class="cls-1" d="M18.54,135.38s0,.17,0,.5,0,.84,0,1.48c0,1.32,0,3.24,0,5.74,0,5,0,12.32.07,21.51,0,18.4,0,44.35.09,74.59v.08l-.05.06L4.53,259l0-.15v26c0,22.77,0,44.38,0,63.69l-.06-.15c6.15,7.45,11.9,14.44,17.22,20.89l.05.06v.07c0,19.26-.07,35.09-.09,46.13,0,5.5,0,9.8-.06,12.75q0,2.18,0,3.33c0,.76,0,1.15,0,1.15s0-.39,0-1.15,0-1.88,0-3.33c0-2.95,0-7.25-.06-12.75,0-11-.05-26.87-.09-46.13l0,.14L4.14,348.74l-.06-.06v-.09c0-19.31,0-40.92,0-63.69V258.81l.05-.07,14.23-19.69-.05.15c0-30.24.07-56.19.09-74.59,0-9.19.06-16.49.07-21.51,0-2.5,0-4.42,0-5.74,0-.64,0-1.13,0-1.48S18.54,135.38,18.54,135.38Z"/><circle class="cls-1" cx="247.15" cy="90.99" r="3.61"/><circle class="cls-1" cx="227.32" cy="297.7" r="3.61"/><path class="cls-1" d="M247.68,91a1.77,1.77,0,0,1,0,.31c0,.23,0,.54,0,.94,0,.84,0,2.06,0,3.63,0,3.19,0,7.83.07,13.67,0,11.74,0,28.34.09,47.88v.1l-.07.07L227.5,178l.08-.18v11.33c0,29.42-.06,56-.08,75.35,0,9.63-.06,17.42-.08,22.83,0,2.68,0,4.77,0,6.21,0,.7,0,1.23,0,1.62s0,.55,0,.55,0-.19,0-.55,0-.92,0-1.62c0-1.44,0-3.53-.05-6.21,0-5.41-.05-13.2-.09-22.83,0-19.3,0-45.93-.07-75.35V177.67l.08-.07,20.37-20.35-.07.17c0-19.54.07-36.14.09-47.88,0-5.84.05-10.48.07-13.67,0-1.57,0-2.79,0-3.63,0-.4,0-.71,0-.94A1.77,1.77,0,0,1,247.68,91Z"/></g><g id="Chair"><path class="cls-4" d="M139.15,295.73c-3.92-6.71-8.1-13.44-14.26-19-15.62-14.07-42.44-18.26-65.23-13.2-17.59,3.9-34.2,13.79-38.81,27.78-2.09,6.31-1.62,13-1,19.46,4.29,42.54,25.58,119.73,26.41,121.51l143.54-.58C181.39,384.75,164.26,338.79,139.15,295.73Z"/><path class="cls-5" d="M189.83,431.7s-.09-.37-.24-1.09-.36-1.81-.64-3.22-.6-3.16-1-5.22-1-4.43-1.56-7.1a411.91,411.91,0,0,0-12.81-44.49,431.35,431.35,0,0,0-27.86-62.7c-.78-1.42-1.55-2.85-2.34-4.28s-1.62-2.86-2.44-4.29c-1.63-2.88-3.29-5.79-5.09-8.65-3.58-5.7-7.79-11.3-13.34-15.6a21.26,21.26,0,0,0-2.11-1.56c-.73-.5-1.44-1-2.18-1.5-1.54-.86-3-1.86-4.64-2.59l-2.41-1.18-2.48-1-1.25-.52-1.27-.44-2.57-.87a85.06,85.06,0,0,0-21.67-3.59,91.75,91.75,0,0,0-21.91,2,74.19,74.19,0,0,0-20,7.4A50.74,50.74,0,0,0,31.41,277a38,38,0,0,0-6.86,7.5c-.45.71-.93,1.4-1.34,2.12l-1.14,2.23-.9,2.31a21.44,21.44,0,0,0-.69,2.37,36.86,36.86,0,0,0-.89,9.68c.09,3.22.38,6.4.76,9.53s.69,6.21,1.18,9.24c.85,6.06,1.87,11.92,2.89,17.58,2.06,11.31,4.33,21.78,6.45,31.33,4.28,19.09,8.19,34.43,11,45,1.37,5.3,2.49,9.4,3.25,12.17.39,1.38.69,2.43.89,3.16s.32,1.06.32,1.06-.13-.35-.37-1-.53-1.77-.94-3.14c-.79-2.77-1.94-6.86-3.35-12.14-2.82-10.57-6.79-25.91-11.12-45-2.14-9.54-4.43-20-6.51-31.33C23,334,21.94,328.1,21.08,322c-.5-3-.81-6.12-1.19-9.25s-.69-6.32-.78-9.57A38,38,0,0,1,20,293.4a22.89,22.89,0,0,1,.71-2.41c.3-.78.61-1.57.91-2.36l1.16-2.26c.41-.74.9-1.44,1.35-2.16a39.08,39.08,0,0,1,7-7.6,51,51,0,0,1,8.66-5.92,74.38,74.38,0,0,1,20.13-7.47,92.24,92.24,0,0,1,22-2,86.31,86.31,0,0,1,21.82,3.61l2.58.88,1.29.45,1.25.52,2.51,1,2.42,1.19c1.64.74,3.13,1.74,4.68,2.62.76.48,1.47,1,2.2,1.51a22.15,22.15,0,0,1,2.13,1.58c5.62,4.35,9.86,10,13.45,15.74,1.8,2.87,3.47,5.78,5.1,8.66l2.44,4.3,2.33,4.29a428.32,428.32,0,0,1,27.79,62.81A403.6,403.6,0,0,1,186.55,415c.57,2.67,1.07,5.05,1.51,7.11s.73,3.82,1,5.24.45,2.48.59,3.22S189.83,431.7,189.83,431.7Z"/><path class="cls-5" d="M26.64,281.32a2,2,0,0,1,0,.4c0,.29-.1.68-.17,1.17-.14,1-.31,2.55-.43,4.52A78.48,78.48,0,0,0,27.22,304c2.42,13.9,5.38,33.18,9.71,54.27,2.18,10.54,4.56,20.52,7.08,29.5s5.16,17,7.57,23.58,4.69,11.86,6.3,15.46L59.76,431l.48,1.08a1.8,1.8,0,0,1,.14.38,200.39,200.39,0,0,1-9.14-20.93c-2.46-6.62-5.16-14.6-7.69-23.58s-4.95-19-7.13-29.53c-4.34-21.1-7.24-40.39-9.56-54.31a75.26,75.26,0,0,1-1.05-16.68A40.63,40.63,0,0,1,26.64,281.32Z"/><path class="cls-5" d="M45.23,315.26c0,.08-1,.3-2.55.87a23.86,23.86,0,0,0-5.7,3,30,30,0,0,0-6.32,6.56A9,9,0,0,1,32,323.32a20.44,20.44,0,0,1,10.54-7.54A8.4,8.4,0,0,1,45.23,315.26Z"/><path class="cls-5" d="M39.58,324.84c0,.15-1.9.09-4.14.61s-3.91,1.39-4,1.25A8.18,8.18,0,0,1,35.33,325,8.32,8.32,0,0,1,39.58,324.84Z"/><path class="cls-5" d="M35.49,373.27c-.05,0,0-.28.19-.61a2.39,2.39,0,0,1,1.21-.93,2.49,2.49,0,0,1,1.54-.06c.38.13.56.31.53.36s-.91-.18-1.89.19S35.63,373.33,35.49,373.27Z"/><path class="cls-5" d="M37.43,377.36c-.14,0-.06-1,.87-1.76s1.94-.6,1.91-.46-.83.24-1.59.86S37.58,377.39,37.43,377.36Z"/></g><g id="Character"><path class="cls-6" d="M222.73,392.93s-3.2-78.49-6.16-92.09c-3.76-17.3-18.32-27.75-18.32-27.75l-5.58,135,5.8,3.47,3.42,1.8c1.53,5.73-1.64,7.14,14.06,11.17,1.26.32,26.33,4.29,26.33,4.29l2.46-25.47Z"/><path class="cls-6" d="M265.52,427.9s-9.07.62-12.76,2.12c-4,1.62-9,.68-12.34-1.5a35.31,35.31,0,0,1-5.34-4.17l-12.36.06A14.84,14.84,0,0,1,220,409.16a16.58,16.58,0,0,1,2.73-4.88c1.44-1.62,2.09-2.58,6.08-3.35l16.38,2.48s22.7-2.1,26.78-.27c0,0,5.14,2.9,6.74,4.13.6.47,2.52,6.22-1.11,9.3,0,0,3.27,2.49,1.57,4.83l-.81,1s2.22,2.76,1.14,4-10.7,7.15-14.2,5.86-1.07-4.17.45-4.79"/><path class="cls-7" d="M275.05,411.62a11.7,11.7,0,0,0-1.2.46c-.76.3-1.86.74-3.25,1.22-.69.23-1.45.48-2.28.71s-1.73.44-2.66.77a5.77,5.77,0,0,0-2.63,1.66,3.3,3.3,0,0,0-.65,3.26,2.54,2.54,0,0,0,1.23,1.27,4.52,4.52,0,0,0,1.63.42,13.38,13.38,0,0,0,3.08-.23,27.7,27.7,0,0,0,5-1.41c1.38-.52,2.46-1,3.21-1.35a8.32,8.32,0,0,0,1.15-.57,7.92,7.92,0,0,0-1.21.42c-.77.3-1.87.74-3.25,1.23a29.31,29.31,0,0,1-4.95,1.31,13.39,13.39,0,0,1-3,.2,4,4,0,0,1-1.48-.38,2.17,2.17,0,0,1-1-1.07,2.94,2.94,0,0,1,.58-2.85,5.48,5.48,0,0,1,2.45-1.56c.9-.32,1.8-.54,2.63-.8s1.6-.51,2.29-.76c1.38-.52,2.47-1,3.22-1.35A6.13,6.13,0,0,0,275.05,411.62Z"/><path class="cls-7" d="M274,404.64a8.92,8.92,0,0,0-1.19.46c-.75.31-1.85.76-3.22,1.25s-3,1-4.9,1.51a6.8,6.8,0,0,0-2.84,1.22,2.49,2.49,0,0,0-.82,1.51,3.12,3.12,0,0,0,.29,1.72,4.16,4.16,0,0,0,2.58,2.1,6.54,6.54,0,0,0,3.09.18,28.9,28.9,0,0,0,4.93-1.54l3.25-1.21a7.1,7.1,0,0,0,1.17-.5,7.26,7.26,0,0,0-1.22.35l-3.29,1.09a30.93,30.93,0,0,1-4.89,1.44,6.46,6.46,0,0,1-2.92-.18,3.8,3.8,0,0,1-2.33-1.9,2.28,2.28,0,0,1,.42-2.76,6.56,6.56,0,0,1,2.68-1.16c1.87-.51,3.53-1.08,4.9-1.6s2.45-1,3.19-1.38A6.55,6.55,0,0,0,274,404.64Z"/><path class="cls-7" d="M269.41,406.74a13.65,13.65,0,0,0,.4-2,13.35,13.35,0,0,0,.45-1.94,3.4,3.4,0,0,0-.85,1.86A3.28,3.28,0,0,0,269.41,406.74Z"/><path class="cls-6" d="M235.25,407.75l8.56-3.51s23.73-11.69,24.15-11.09,1.71.5,1.49,3.43-14.06,9.11-14.48,10.13.42,6.13-4.66,9.9-8.8,3.93-8.8,3.93"/><path class="cls-7" d="M241.51,420.54h.2a5,5,0,0,0,.6-.08,12.94,12.94,0,0,0,2.23-.58,20.12,20.12,0,0,0,3.31-1.53,19.33,19.33,0,0,0,3.92-2.84,10.32,10.32,0,0,0,2.83-5.1,24.3,24.3,0,0,0,.45-3.24,2,2,0,0,1,.07-.37.91.91,0,0,1,.22-.23,7.12,7.12,0,0,1,.7-.47c.48-.3,1-.59,1.5-.88,2-1.15,4.24-2.31,6.45-3.64,1.1-.67,2.21-1.37,3.28-2.17a13.81,13.81,0,0,0,1.54-1.34,4.9,4.9,0,0,0,.64-.84,1.62,1.62,0,0,0,.18-.55,3.23,3.23,0,0,0,0-.53,3.73,3.73,0,0,0-.41-2.08,2.39,2.39,0,0,0-.78-.74,1.38,1.38,0,0,1-.33-.28l-.09-.08c-.11-.07-.13-.05-.17-.05a.86.86,0,0,0-.17,0l-.26.07c-1.29.43-2.47,1-3.65,1.49-2.34,1.05-4.59,2.1-6.72,3.12-4.26,2-8.08,3.9-11.28,5.48-.8.39-1.56.79-2.28,1.11l-2.09.88-3.35,1.41-2.12.9-.54.25-.18.1.19-.06.57-.21,2.14-.84,3.38-1.34,2.11-.85c.74-.32,1.49-.71,2.3-1.1l11.31-5.4c2.14-1,4.38-2.05,6.72-3.09,1.18-.51,2.38-1.06,3.61-1.46a.9.9,0,0,1,.22-.06h.08s0,0,0,0,0-.07,0-.1l0,0c-.27.19-.07.06-.13.11l0,0a2.24,2.24,0,0,0,.42.36,2.14,2.14,0,0,1,.67.63,3.42,3.42,0,0,1,.35,1.85,1.75,1.75,0,0,1-.18.9,4.51,4.51,0,0,1-.58.76A13,13,0,0,1,267,399.1c-1,.78-2.15,1.48-3.25,2.15-2.19,1.32-4.37,2.5-6.43,3.66-.51.29-1,.58-1.51.89a8.45,8.45,0,0,0-.72.5.93.93,0,0,0-.33.39,2.51,2.51,0,0,0-.1.44,24,24,0,0,1-.41,3.21,10.12,10.12,0,0,1-2.72,5,19.69,19.69,0,0,1-3.82,2.85,20,20,0,0,1-3.26,1.57,14.15,14.15,0,0,1-2.19.65l-.58.12Z"/><path class="cls-7" d="M268,421.12a2.79,2.79,0,0,0-.91.28,9,9,0,0,0-2.23,1.36,7.45,7.45,0,0,0-1.28,1.29,2.75,2.75,0,0,0-.66,2,2.25,2.25,0,0,0,1.64,1.7,4.39,4.39,0,0,0,2.51-.14,46.22,46.22,0,0,0,7.88-3.35c.95-.54,1.7-1,2.2-1.37a3.77,3.77,0,0,0,.75-.59,4.24,4.24,0,0,0-.83.46c-.53.31-1.29.75-2.26,1.24a55.92,55.92,0,0,1-7.86,3.23,4.08,4.08,0,0,1-2.28.14,1.89,1.89,0,0,1-1.38-1.38,2.42,2.42,0,0,1,.56-1.77A8.19,8.19,0,0,1,265,423,13.37,13.37,0,0,1,268,421.12Z"/><path class="cls-5" d="M90.93,190.87a3.19,3.19,0,0,1-1.29-5.29c-1.62-.89-1.16-3.45.11-4.79s3.08-2.17,4.07-3.74a3.79,3.79,0,0,1-4.53-3.27,3.1,3.1,0,0,1-2-5.68c-1.73-.15-1.59-3-.14-4s3.35-.89,4.93-1.63A20.35,20.35,0,0,1,103,156.13l-7.08-5.28a4.13,4.13,0,0,1-1.43-1.51c-.62-1.4.49-3,1.65-4a16.66,16.66,0,0,1,8.81-3.85c1-.12,2.36,0,2.69,1,2.2-1,4.75-.93,7.18-.8,1.36.07,2.86.2,3.83,1.16a11.45,11.45,0,0,0-2.53-3.17,4.83,4.83,0,0,1-1.64-3.59c.13-1.35,1.77-2.52,2.89-1.76-1.26-.59-1.09-2.61,0-3.5a6.29,6.29,0,0,1,4-1c1,0,2.2.14,2.47,1.07.44-2.17,4.15-2.47,4.93-.4a3.35,3.35,0,0,1,4.84.38,4.32,4.32,0,0,1,6.11,2.27l-3.77-6.32c-.71-1.19-.83-3.43.55-3.28-2,0-3.12-2.71-2.15-4.44s3.21-2.38,5.17-2.14l1.73,2.49a3.92,3.92,0,0,1,6,4.37c.8-.85,2.35-.39,3,.59a5.88,5.88,0,0,1,.57,3.4c1.93-1.62,5.47.27,5.2,2.77a10.94,10.94,0,0,1,5.7-1.18,3.86,3.86,0,0,1,5-5.48,3.8,3.8,0,0,1,4.91-3.09c.61-2.3,3.63-4,5.46-2.48s.88,4.61-.29,6.78l-3.78,7.05,12.32-6.6a2.05,2.05,0,0,1,1.23-.36c.59.07,1,.61,1.55.88.74.37,1.64.18,2.44.43,2.17.66,2.14,4,.65,5.7s-3.77,2.54-5.45,4.06l5.47,1a5.6,5.6,0,0,1,7.22-3.79c.74-2,3.45-2.27,5.6-2.18,1.93.08,4,.24,5.42,1.6,1.74,1.74,1.41,4.8-.06,6.78s-3.76,3.15-6,4.24c.37,1.63,2.5,2.14,4.16,1.89s3.39-.89,5-.3c2.13.8,3,3.56,5.18,4.34a8.94,8.94,0,0,1,2,.65,3.83,3.83,0,0,1,1.32,2.55c.27,1.18.54,2.37.8,3.55a4.2,4.2,0,0,1,.15,1.79c-.39,1.93-3.09,2.35-4.91,1.6s-3.39-2.18-5.34-2.47c2.57,1.28,5.28,2.7,6.72,5.18s.85,6.35-1.86,7.32-5.43-1.38-7.42-3.5-4.85-4.37-7.5-3.16"/><path class="cls-5" d="M94.88,189.18c-2.07-1.55-5.6.49-5.29,3.06a7.34,7.34,0,0,0-2.75,12.66c1.62,1.37,4.83,1.42,5.17-.67a5.67,5.67,0,0,0,4,3.51,5.53,5.53,0,0,0,2.23,7.84c-3.29,2.26-2.67,8.23,1,9.76a4.51,4.51,0,1,0,8.24,3.68c.71,1.69,1.49,3.48,3,4.5s4,.85,4.76-.81a6.2,6.2,0,0,0,8.82,3.72,4,4,0,0,0,7.88,1.38l10.32.79a36.6,36.6,0,0,0,6.86.1,18.42,18.42,0,0,0,8.17-3,6.29,6.29,0,0,1,2.51-1.24,6.43,6.43,0,0,1,3.11.75,16.74,16.74,0,0,0,16.17-2.38,8.5,8.5,0,0,1,2.24-1.49,7.57,7.57,0,0,1,3.08-.16,30.19,30.19,0,0,0,7.59-.43c2.14-.4,4.43-1.16,5.58-3s.25-4.94-1.92-5.09a4.67,4.67,0,0,1,1.49-3.82A2.81,2.81,0,0,1,201,219c.9,1.09.2,3.15-1.21,3.21,2.19,1.81,6-.14,6.31-3s-2.31-5.43-5.14-5.69a12.91,12.91,0,0,0,.7-6.22,4.6,4.6,0,0,0,6.18,1.25,7.93,7.93,0,0,0,4.8,4.11,4.75,4.75,0,0,0,5.48-2.4c.84-2-.7-4.74-2.87-4.67,1.73-2.29-.24-6.22-3.11-6.21a6.36,6.36,0,0,0-3.29-7.06,3.36,3.36,0,0,0,4.91-1.42c1.13,2.18,4.37,2,6.59.89,1.75-.83,3.46-2.08,3.18-4.61a5,5,0,0,0-1.58-3.09c-2-1.93-4.88-2.28-7.58-2.59A33,33,0,0,1,212.12,171c3,.36,6.27-1.62,6.9-4.59l-15-9.28s-34.59-5.35-35.84-5.35-73.54,37.24-73.54,37.24c-1.68,1.75-4.94,1-6.17-1.12s-.74-4.84.58-6.87a19.68,19.68,0,0,1,5.29-4.91c-2.32-.16-4.79-.38-6.5-2.06a3.68,3.68,0,0,1-1-4c.83-2,3.14-1.85,4.62-3a8.45,8.45,0,0,0,1.9-2.64"/><path class="cls-6" d="M191.52,181.31c-.86-12.36-9.15-27.46-21.46-26.08l-38.38,10a7.26,7.26,0,0,0-6.44,7.39l4.25,82.93L120.24,260c-.09,0,9.58,5.38,9.49,5.4s8.88,26.11,34.25,18c5-1.6,7.31-7.13,8.28-12.8l.26,0c0-.67,8.39-7.09,8.4-7.74,0,.65-8.27-4.68-8.27-4.68l0-2.25c0-7.49,0-10.56,0-10.49s15.77-2.73,18.9-23.35C193.11,211.83,192.48,195,191.52,181.31Z"/><path class="cls-5" d="M186.34,196.19a2.64,2.64,0,0,1-2.53,2.68,2.53,2.53,0,0,1-2.74-2.36,2.65,2.65,0,0,1,2.53-2.69A2.53,2.53,0,0,1,186.34,196.19Z"/><path class="cls-5" d="M187.94,190.07c-.33.35-2.34-1.12-5.18-1.09s-4.92,1.46-5.23,1.11c-.15-.15.18-.77,1.08-1.44a7.18,7.18,0,0,1,4.18-1.32,7,7,0,0,1,4.13,1.3C187.8,189.29,188.1,189.92,187.94,190.07Z"/><path class="cls-5" d="M159.19,196.3a2.64,2.64,0,0,1-2.53,2.68,2.53,2.53,0,0,1-2.74-2.36,2.65,2.65,0,0,1,2.53-2.69A2.54,2.54,0,0,1,159.19,196.3Z"/><path class="cls-5" d="M160,190.79c-.33.35-2.34-1.12-5.18-1.09s-4.92,1.46-5.23,1.11c-.15-.15.17-.77,1.08-1.44a7.18,7.18,0,0,1,4.18-1.32,7,7,0,0,1,4.13,1.3C159.85,190,160.16,190.64,160,190.79Z"/><path class="cls-5" d="M170.46,211.8c0-.16,1.75-.47,4.61-.86.72-.08,1.41-.23,1.53-.73a3.64,3.64,0,0,0-.5-2.14c-.69-1.76-1.42-3.59-2.18-5.52-3-7.85-5.24-14.3-4.92-14.42s3,6.14,6.07,14c.73,1.94,1.43,3.78,2.09,5.55a4.23,4.23,0,0,1,.4,2.85,1.87,1.87,0,0,1-1.19,1.07,5.45,5.45,0,0,1-1.23.18C172.26,211.94,170.47,212,170.46,211.8Z"/><path class="cls-7" d="M172.65,245.43A52.4,52.4,0,0,1,145,238.26s6.79,14.11,27.4,12Z"/><path class="cls-7" d="M170.79,218.21a7.21,7.21,0,0,0-5.9-3.13,4.35,4.35,0,0,0-3.66,6.81A4.47,4.47,0,0,0,166,223.6a10.49,10.49,0,0,0,4.23-2.67,3.17,3.17,0,0,0,.9-1.09,1.48,1.48,0,0,0-.13-1.48"/><path class="cls-5" d="M162.1,213.83c.47,0,.49,3,3.15,5.23s5.94,1.81,6,2.24c0,.19-.73.6-2.12.65a7.67,7.67,0,0,1-5-1.7,6.68,6.68,0,0,1-2.44-4.38C161.55,214.58,161.89,213.81,162.1,213.83Z"/><path class="cls-5" d="M161.24,184.23c-.27.78-3.11.43-6.45.85s-6,1.36-6.47.66c-.2-.33.27-1.06,1.35-1.81a10.66,10.66,0,0,1,4.79-1.71,10.79,10.79,0,0,1,5,.55C160.74,183.26,161.36,183.86,161.24,184.23Z"/><path class="cls-5" d="M186.84,181.85c-.5.65-2.46,0-4.82,0s-4.34.46-4.81-.21c-.2-.33.11-1,1-1.59a6.58,6.58,0,0,1,3.9-1.09,6.69,6.69,0,0,1,3.85,1.27C186.78,180.87,187.05,181.53,186.84,181.85Z"/><path class="cls-5" d="M125.16,193.73a3.44,3.44,0,0,0,1,4,2.37,2.37,0,0,0,3.37-.94c.9,1.22,3,0,2.69-1.59,1.11.62,2.57-.87,2.22-2.27,1.29.5,2.06-1.59,2.74-3a21.11,21.11,0,0,1,1.33-2.13,14.43,14.43,0,0,0,2.14-7.77c1.69-1.91,2.12-4.86,2.47-7.6.21-1.71.42-3.42.64-5.13l1-1.19a2.8,2.8,0,0,0,1.84,2.67,6,6,0,0,0,3.11,0l3.06-.59,1.91.56c-.56,1.6,0,3.41.55,5a4.93,4.93,0,0,0,1.76,2.8,1.45,1.45,0,0,0,2-1.55,1.61,1.61,0,0,0,2.49-.38,5.32,5.32,0,0,0,.7-3.16,13.45,13.45,0,0,0-2.43-7.44l5.31,5a2.38,2.38,0,0,0,1.3.8,1.41,1.41,0,0,0,1.49,1.57,3.73,3.73,0,0,0,2-1.33c1.3-1.36,2.68-3.67,1.53-5.21a1.16,1.16,0,0,0,.52-1.69l6,4.63c-.6-.36-1.27.58-1.14,1.36a3.21,3.21,0,0,0,1.25,1.8,4.71,4.71,0,0,0-.71,2.86c-1.08-1-2.73.82-2.38,2.39a3.42,3.42,0,0,0,3.18,2.51,2.38,2.38,0,0,0,2.7-1.75c1.33.28,2.62-1.54,2.15-3,.95.65,1.81-1.07,1.86-2.38a18.67,18.67,0,0,0-1-7c0,.33.34.62.58.43a.51.51,0,0,0-.1-.8c1.13,2.78,2.26,5.55,3.38,8.33a19.52,19.52,0,0,1,1.84,6.92c0,1,.12,2.35.95,2.45a1.3,1.3,0,0,0,.66-.17,12.44,12.44,0,0,0,5.48-6.32,9.43,9.43,0,0,0,.84-2.92c.2-2.12-.68-4.18-.82-6.31a22,22,0,0,0-.18-2.82,8.43,8.43,0,0,0-2.17-3.68c-3.24-3.78-6.67-7.7-11-9.23-2.66-.94-5.51-.92-8.18-1.83a47.14,47.14,0,0,1-4.79-2.23c-6.58-3.1-13.86-3.52-20.92-2.94A33.49,33.49,0,0,0,137.7,146c-4,1.89-7.58,5-10.91,8.34-5,4.94-9.67,10.47-12.85,17.19-2.44,5.15-4,11.17-3.1,17s4.45,11.31,9.33,12.52l1.92-2.2"/><path class="cls-6" d="M130.79,197.68c-.28-.13-11.47-3.68-11.37,7.82s11.63,9,11.64,8.69S130.79,197.68,130.79,197.68Z"/><path class="cls-7" d="M127.51,209.87c-.05,0-.2.14-.53.3a2,2,0,0,1-1.5,0c-1.22-.44-2.26-2.35-2.33-4.43a6.65,6.65,0,0,1,.53-2.87,2.32,2.32,0,0,1,1.49-1.55,1,1,0,0,1,1.19.54c.16.32.09.55.15.57s.24-.2.15-.67a1.3,1.3,0,0,0-.46-.72,1.53,1.53,0,0,0-1.11-.28,2.81,2.81,0,0,0-2.08,1.8,6.7,6.7,0,0,0-.66,3.21c.09,2.32,1.29,4.48,3,4.94a2.11,2.11,0,0,0,1.83-.32C127.49,210.14,127.55,209.89,127.51,209.87Z"/><path class="cls-4" d="M168.39,194.17a22.23,22.23,0,0,0-.52-3.31,13.63,13.63,0,0,0-5-7.38,13.39,13.39,0,0,0-12.69-1.89,12.69,12.69,0,0,0-3.39,1.83,12.46,12.46,0,0,0-2.82,2.84,13.32,13.32,0,0,0,0,15.81,13.41,13.41,0,0,0,6.21,4.67,13.47,13.47,0,0,0,7,.6,13.32,13.32,0,0,0,5.66-2.49,13.54,13.54,0,0,0,5-7.38,22.44,22.44,0,0,0,.52-3.3,4.13,4.13,0,0,1,0,.87,6.12,6.12,0,0,1-.08,1.05,10,10,0,0,1-.25,1.43,13.74,13.74,0,0,1-10.75,10.25,13.9,13.9,0,0,1-7.28-.58,12.7,12.7,0,0,1-3.51-1.88,12.86,12.86,0,0,1-2.95-2.94,13.8,13.8,0,0,1,0-16.41,12.82,12.82,0,0,1,2.94-2.94,13,13,0,0,1,3.51-1.88,13.79,13.79,0,0,1,7.28-.57,13.75,13.75,0,0,1,10.75,10.24,10,10,0,0,1,.25,1.43,6.12,6.12,0,0,1,.08,1A4.2,4.2,0,0,1,168.39,194.17Z"/><path class="cls-4" d="M200.84,194.17a25.42,25.42,0,0,0-.53-3.31,13.57,13.57,0,0,0-5-7.38,13.32,13.32,0,0,0-5.66-2.49,13.47,13.47,0,0,0-7,.6,12.69,12.69,0,0,0-3.39,1.83,12.46,12.46,0,0,0-2.82,2.84,13.32,13.32,0,0,0,0,15.81,13.41,13.41,0,0,0,6.21,4.67,13.48,13.48,0,0,0,7,.6,13.32,13.32,0,0,0,5.66-2.49,13.54,13.54,0,0,0,5-7.38,25.74,25.74,0,0,0,.53-3.3,6.39,6.39,0,0,1,0,.87,5.25,5.25,0,0,1-.08,1.05,8.81,8.81,0,0,1-.25,1.43,13.66,13.66,0,0,1-4.94,7.63,13.74,13.74,0,0,1-13.09,2,13.91,13.91,0,0,1-6.45-4.82A13.78,13.78,0,0,1,176,186a13.91,13.91,0,0,1,6.45-4.82,13.79,13.79,0,0,1,7.28-.57,13.75,13.75,0,0,1,10.75,10.24,8.81,8.81,0,0,1,.25,1.43,5.25,5.25,0,0,1,.08,1A6.51,6.51,0,0,1,200.84,194.17Z"/><path class="cls-4" d="M174.17,191c-.06.14-1.37-.4-3.08-.44s-3.05.37-3.1.22a6,6,0,0,1,6.18.22Z"/><path class="cls-4" d="M141,195.52a22.92,22.92,0,0,1-5.75,1.46,23.16,23.16,0,0,1-5.9.42c0-.15,2.61-.42,5.82-.94S141,195.37,141,195.52Z"/><path class="cls-8" d="M167,192a7.48,7.48,0,0,1-.14,2.57,16.19,16.19,0,0,1-2.26,5.8,13.93,13.93,0,0,1-4.34,4.46,3.29,3.29,0,0,1-2.51.55,6.08,6.08,0,0,0,2.32-.87,15.45,15.45,0,0,0,4.09-4.42,18.25,18.25,0,0,0,2.34-5.59C166.81,193,166.87,192,167,192Z"/><path class="cls-8" d="M196.63,200.78a15,15,0,0,1,1.1-2.15,10.39,10.39,0,0,0,.9-2.4,8.21,8.21,0,0,0,.05-3.1,16.45,16.45,0,0,0-1.62-5.48c-.7-1.29-1.4-1.91-1.33-2s.22.1.52.4a6.54,6.54,0,0,1,1.13,1.4,14.5,14.5,0,0,1,1.82,5.59,8.21,8.21,0,0,1-.1,3.29,9.34,9.34,0,0,1-1,2.45A8.59,8.59,0,0,1,196.63,200.78Z"/><path class="cls-4" d="M122.67,213.8s-.29.14-.75.48a3.75,3.75,0,0,0-1.31,1.93,3.25,3.25,0,0,0,.69,3.2,3.86,3.86,0,0,0,3.83,1.12,4.13,4.13,0,0,0,2.07-6.29,4.91,4.91,0,0,0-1.75-1.6c-.5-.28-.81-.37-.8-.41a1.79,1.79,0,0,1,.89.22,4.75,4.75,0,0,1,2,1.58,4.42,4.42,0,0,1,.81,3.63,4.59,4.59,0,0,1-3,3.37,4.3,4.3,0,0,1-4.33-1.3,3.58,3.58,0,0,1-.87-1.87,3.8,3.8,0,0,1,.19-1.77,3.7,3.7,0,0,1,1.55-2A1.73,1.73,0,0,1,122.67,213.8Z"/><path class="cls-4" d="M170.37,161.18a2.89,2.89,0,0,0,.77-1.48,2,2,0,0,0-.52-1.73,2.16,2.16,0,0,0-2.19-.56l-.48.16.2-.47a2.25,2.25,0,0,0-.6-2.54,2.21,2.21,0,0,0-2.86.1l-.38-.36a.9.9,0,0,0,.16-.29,1.3,1.3,0,0,0-.18-1.08,1.45,1.45,0,0,0-.94-.59,2.48,2.48,0,0,0-1.15,0,3,3,0,0,1-1.29.28c-.55-.09-.79-.5-1.07-.69a4.66,4.66,0,0,0-.89-.55,4.94,4.94,0,0,0-1.85-.42,5,5,0,0,0-2.68.64c-.57.33-.84.61-.87.57a2.19,2.19,0,0,1,.76-.74,5,5,0,0,1,2.8-.84,5.21,5.21,0,0,1,2,.4,4.4,4.4,0,0,1,1,.58c.33.24.58.56.86.58a3,3,0,0,0,1.08-.29,2.87,2.87,0,0,1,1.4-.07,2,2,0,0,1,1.26.8,1.8,1.8,0,0,1,.25,1.54,1.61,1.61,0,0,1-.26.46l-.38-.36a2.64,2.64,0,0,1,4.23,3l-.27-.3a2.51,2.51,0,0,1,2.6.74,2.27,2.27,0,0,1,.51,2,2.3,2.3,0,0,1-.64,1.17C170.53,161.14,170.38,161.2,170.37,161.18Z"/><path class="cls-4" d="M183.21,164.52a3.58,3.58,0,0,0,1-1.44,2.58,2.58,0,0,0-.12-2,2.69,2.69,0,0,0-2-1.47l-.37,0,.25-.28a3.19,3.19,0,0,0,.88-2.81,1.72,1.72,0,0,0-1-1.16,1.37,1.37,0,0,0-1.52.2l-1.47,1.56,1.07-1.86A2.65,2.65,0,0,0,180,153a2.45,2.45,0,0,0-1.77-1.53,2.59,2.59,0,0,0-1.72.18l-.61.29.25-.62c.35-.89-.55-1.92-1.44-2A4.4,4.4,0,0,0,172,150l-.49.26.16-.53a1.89,1.89,0,0,0-.63-1.84,3.57,3.57,0,0,0-1.76-.79,8.92,8.92,0,0,0-3.3.08,14.6,14.6,0,0,0-2.77,1,2.43,2.43,0,0,1,.64-.44,8.31,8.31,0,0,1,2.07-.82,8.92,8.92,0,0,1,3.43-.19,3.83,3.83,0,0,1,2,.85,2.35,2.35,0,0,1,.78,2.29l-.34-.27a4.72,4.72,0,0,1,3-.77,2.4,2.4,0,0,1,1.51.91,1.83,1.83,0,0,1,.33,1.81l-.35-.33a3.13,3.13,0,0,1,2.07-.21,3,3,0,0,1,2.13,1.84,3.13,3.13,0,0,1-.19,2.68l-.4-.29a1.86,1.86,0,0,1,2.08-.3,2.21,2.21,0,0,1,1.29,1.49,3.6,3.6,0,0,1-1,3.19l-.12-.33a3,3,0,0,1,2.26,1.73,2.77,2.77,0,0,1,0,2.15,2.7,2.7,0,0,1-.79,1.12A1,1,0,0,1,183.21,164.52Z"/><path class="cls-4" d="M210.9,166.92a1.94,1.94,0,0,0-.67-1.42,2.46,2.46,0,0,0-1.71-.61,7.26,7.26,0,0,0-2.46.58l-.29.1,0-.3A2.22,2.22,0,0,0,204,163.1a6.4,6.4,0,0,0-3.65.59l-1.61.59,1.37-1a1.83,1.83,0,0,0-.13-2.63,4.19,4.19,0,0,0-3.22-.76h-.15l-1,.09.85-.56a2,2,0,0,0-.22-3.11,3,3,0,0,0-3.31.32l-1.06.84.71-1.15a4.45,4.45,0,0,0,0-4.53,4.19,4.19,0,0,0-3.05-1.95,4.7,4.7,0,0,0-2.43.32c-.53.22-.79.42-.81.39s.05-.06.17-.16A3.28,3.28,0,0,1,187,150a4.53,4.53,0,0,1,2.52-.46,4.39,4.39,0,0,1,3.36,2,4.86,4.86,0,0,1,.08,5l-.35-.31a3.44,3.44,0,0,1,3.88-.38,2.5,2.5,0,0,1,1.11,1.89,2.2,2.2,0,0,1-.89,2.08l-.17-.48h.17a4.6,4.6,0,0,1,3.61.91,2.68,2.68,0,0,1,.78,1.7,1.92,1.92,0,0,1-.7,1.69l-.23-.43a6.88,6.88,0,0,1,3.94-.55,2.61,2.61,0,0,1,2.06,2.65l-.24-.2a7.48,7.48,0,0,1,2.58-.53,2.63,2.63,0,0,1,1.85.77,1.83,1.83,0,0,1,.58,1.12A.82.82,0,0,1,210.9,166.92Z"/><path class="cls-4" d="M196.39,140.56a1.42,1.42,0,0,1-.68.24,9.4,9.4,0,0,1-2,.11,6,6,0,0,0-2.9.43,1.85,1.85,0,0,0-1,1.26,1.33,1.33,0,0,0,.53,1.51l-.35.26c-.11-.67-.93-1.09-1.68-1.53a8.4,8.4,0,0,0-2.42-1,3.11,3.11,0,0,0-2.46.37,2.09,2.09,0,0,0-1.07,1.92l.08.63-.48-.42a5.78,5.78,0,0,0-3.38-1.4,6.44,6.44,0,0,0-2.9.42,8.05,8.05,0,0,0-2.22,1.42,2.14,2.14,0,0,1,.44-.57,5.48,5.48,0,0,1,1.66-1.12,6.34,6.34,0,0,1,3-.55,6,6,0,0,1,3.68,1.43l-.4.22a2.53,2.53,0,0,1,1.27-2.4,3.56,3.56,0,0,1,2.85-.46,8.89,8.89,0,0,1,2.57,1.11,12.6,12.6,0,0,1,1.13.72,2,2,0,0,1,.77,1.17l.07.49-.43-.24a1.8,1.8,0,0,1-.74-2,2.31,2.31,0,0,1,1.27-1.52,6,6,0,0,1,3.09-.36,11.23,11.23,0,0,0,2,0A4.35,4.35,0,0,1,196.39,140.56Z"/><path class="cls-4" d="M170.71,130.6a5.89,5.89,0,0,0-1.36.19,3.24,3.24,0,0,0-1.3.82,2.84,2.84,0,0,0-.83,1.75l0,.28-.27-.1a1.72,1.72,0,0,0-1.89,1.07,5.16,5.16,0,0,0-.1,2.86l.15,1-.63-.83-.1-.13a2.21,2.21,0,0,0-1.78-.74,2.47,2.47,0,0,0-1.69.74,3.9,3.9,0,0,0-1,3.06,7.35,7.35,0,0,0,.57,2.24c.22.51.36.79.32.81a2.36,2.36,0,0,1-.5-.72,6.59,6.59,0,0,1-.76-2.3,4.21,4.21,0,0,1,1.07-3.43,2.9,2.9,0,0,1,4.22,0l.13.17-.48.18a5.5,5.5,0,0,1,.17-3.14,2.14,2.14,0,0,1,2.48-1.27l-.29.19a3.13,3.13,0,0,1,1-2,3.3,3.3,0,0,1,1.47-.81,2.6,2.6,0,0,1,1.08-.06C170.59,130.53,170.71,130.58,170.71,130.6Z"/><path class="cls-4" d="M148.05,146.34a1.6,1.6,0,0,1-.68-.16,4.17,4.17,0,0,1-1.56-1.11,4.61,4.61,0,0,1-1.19-2.6,2.31,2.31,0,0,0-.34-1.41c-.29-.36-.93-.59-1.32-1.19a2.61,2.61,0,0,1,.67-3.5l0,.38a8.31,8.31,0,0,1-2.21-3.08,3.51,3.51,0,0,1-.37-1.42,11.59,11.59,0,0,1,.63,1.3,9.1,9.1,0,0,0,2.26,2.83l.24.21-.26.17a2.15,2.15,0,0,0-.5,2.82c.26.44.83.65,1.27,1.15a2.65,2.65,0,0,1,.43,1.7,4.35,4.35,0,0,0,1,2.4A6.77,6.77,0,0,0,148.05,146.34Z"/><path class="cls-4" d="M141.38,150.89s-.15.05-.43.07a6.31,6.31,0,0,1-1.23-.11,7,7,0,0,1-3.84-2.18h.34a4.47,4.47,0,0,1-3.05,1.61,4.58,4.58,0,0,1-1.93-.23,2.84,2.84,0,0,1-1.66-1.3,5.64,5.64,0,0,1-.2-.74,1,1,0,0,0-.33-.48,3.17,3.17,0,0,0-1.19-.54,4.29,4.29,0,0,1-1.34-.54,1.49,1.49,0,0,1-.73-1.28l.33.23a4.63,4.63,0,0,1-3.17.07,5,5,0,0,1-2.08-1.3,4.18,4.18,0,0,1-.86-1.34c-.12-.34-.15-.54-.12-.55a6.11,6.11,0,0,0,1.18,1.69,5,5,0,0,0,2,1.13,4.26,4.26,0,0,0,2.87-.13l.35-.15,0,.37a1,1,0,0,0,.54.85,3.52,3.52,0,0,0,1.19.46,3.8,3.8,0,0,1,1.4.63,1.57,1.57,0,0,1,.49.72,6,6,0,0,0,.18.69,2.37,2.37,0,0,0,1.35,1,4.12,4.12,0,0,0,4.47-1.17l.17-.2.17.2a7.05,7.05,0,0,0,3.55,2.21C140.77,150.86,141.38,150.83,141.38,150.89Z"/><path class="cls-4" d="M100.41,166.84s0-.05-.07-.18a3.33,3.33,0,0,1-.08-.54,5.44,5.44,0,0,1,.25-2.06,12.4,12.4,0,0,1,1.39-2.91,11.3,11.3,0,0,1,1.16-1.64,3,3,0,0,1,.9-.7,1.36,1.36,0,0,1,1.27,0l-.32.22a3.45,3.45,0,0,1,5.62-3l-.41.21a2.4,2.4,0,0,1,1-1.95,2.32,2.32,0,0,1,2.22-.27,2.29,2.29,0,0,1,1,.78l-.46.17a1.48,1.48,0,0,1,.54-1.22,2.07,2.07,0,0,1,1.18-.49,4.84,4.84,0,0,1,2.22.57l-.32.1a3.7,3.7,0,0,1,2.25-1.57,5.2,5.2,0,0,1,2.54,0,13,13,0,0,1,3.91,2l-.27.23a.93.93,0,0,1,.1-.9,1.67,1.67,0,0,1,.65-.49,2.81,2.81,0,0,1,1.38-.21,7.7,7.7,0,0,1,2.07.63,7.35,7.35,0,0,1,1.17.69c.24.19.36.3.35.32s-.54-.38-1.61-.82a7.8,7.8,0,0,0-2-.52,2.39,2.39,0,0,0-1.21.22c-.4.18-.73.55-.54.94l.28.57-.56-.34a13.09,13.09,0,0,0-3.81-1.83,4.8,4.8,0,0,0-2.32,0,3.21,3.21,0,0,0-1.94,1.36l-.12.19-.2-.09a4.33,4.33,0,0,0-2-.52c-.62,0-1.3.57-1.25,1.16l.09.91-.55-.74a1.83,1.83,0,0,0-.8-.59,1.77,1.77,0,0,0-1.71.2,1.86,1.86,0,0,0-.76,1.51v.57l-.43-.36a3,3,0,0,0-4.87,2.56l0,.43-.36-.21c-.56-.33-1.23.12-1.67.58a11.46,11.46,0,0,0-1.14,1.56,12.63,12.63,0,0,0-1.46,2.8A6.75,6.75,0,0,0,100.41,166.84Z"/><path class="cls-4" d="M103.3,182.05a1.44,1.44,0,0,1-.26-.33,9,9,0,0,1-.61-1,3.76,3.76,0,0,1-.41-1.91,2.62,2.62,0,0,1,.39-1.18,2,2,0,0,1,1.14-.88l-.11.28a2.42,2.42,0,0,1,2.59-3.71l-.24.36a2,2,0,0,1,.08-2.31,2.91,2.91,0,0,1,2.22-1,11.17,11.17,0,0,0,1.16,0,1,1,0,0,0,.72-.62,4.09,4.09,0,0,1,.67-1.13,2.21,2.21,0,0,1,1.22-.67,13,13,0,0,1,2.77-.07,3,3,0,0,0,2.24-.64,11.39,11.39,0,0,0,.71-1,2.59,2.59,0,0,1,1-.81,2.73,2.73,0,0,1,2.43.14l-.3.32a2.06,2.06,0,0,1,.28-2.39,2.93,2.93,0,0,1,1.94-1,9.47,9.47,0,0,1,3.4.43,11.37,11.37,0,0,1,2,.81,2.76,2.76,0,0,1,.66.41,27.31,27.31,0,0,0-2.76-1,9.23,9.23,0,0,0-3.28-.32,2.59,2.59,0,0,0-1.67.86,1.66,1.66,0,0,0-.23,1.88l.56.81-.86-.49a2.28,2.28,0,0,0-2-.08,2.09,2.09,0,0,0-.85.66,10.32,10.32,0,0,1-.74,1,2.74,2.74,0,0,1-1.23.69,5.83,5.83,0,0,1-1.37.13,12.91,12.91,0,0,0-2.65.06,1.71,1.71,0,0,0-1,.52,3.85,3.85,0,0,0-.6,1,1.5,1.5,0,0,1-1.08.88,10.24,10.24,0,0,1-1.23,0,2.42,2.42,0,0,0-1.85.82,1.5,1.5,0,0,0-.1,1.73l.41.53-.65-.16a2.05,2.05,0,0,0-2.21.9,2.09,2.09,0,0,0,0,2.16l.14.22-.25.06a2,2,0,0,0-1.33,1.74,3.47,3.47,0,0,0,.31,1.78C103,181.54,103.35,182,103.3,182.05Z"/><path class="cls-4" d="M104.18,213.66a1.24,1.24,0,0,1-.51-.16,3.62,3.62,0,0,1-1.18-.94,3.67,3.67,0,0,1-.87-2.2,3.94,3.94,0,0,1,1.06-2.9l0,.28a7.18,7.18,0,0,1-1.35-2.58,2.87,2.87,0,0,1,.12-1.66,2.14,2.14,0,0,1,1.23-1.29l0,.46a3,3,0,0,1-1.3-2.71,3.41,3.41,0,0,1,.54-1.7,2.88,2.88,0,0,1,1.34-1.07c.5-.22.73-.45.74-.95a4,4,0,0,1,.35-1.52,5.2,5.2,0,0,1,1.94-2.07c.7-.51,1.34-1,2-1.4a8.57,8.57,0,0,1,3.17-1.49,3.62,3.62,0,0,1,1-.08,1.23,1.23,0,0,1,.33,0c0,.06-.46,0-1.24.23a9.1,9.1,0,0,0-3,1.59L106.47,193a4.91,4.91,0,0,0-1.75,1.92,3.61,3.61,0,0,0-.29,1.37,1.5,1.5,0,0,1-.29.86,2,2,0,0,1-.73.51,2.69,2.69,0,0,0-.53,4.59l.45.27-.5.18a2.08,2.08,0,0,0-1,2.37,6.91,6.91,0,0,0,1.24,2.43l.1.15-.13.13a3.61,3.61,0,0,0-1,2.58,3.53,3.53,0,0,0,.72,2.06A5,5,0,0,0,104.18,213.66Z"/><path class="cls-4" d="M120.43,200.15a1.84,1.84,0,0,1-.71-.15,6.26,6.26,0,0,1-1.82-.95,6.84,6.84,0,0,1-2.07-2.42,2.78,2.78,0,0,1-.36-2,1.41,1.41,0,0,1,.8-.89,1.08,1.08,0,0,1,1.26.22l-.39.23a3.58,3.58,0,0,1-.35-2,1.66,1.66,0,0,1,.62-1,1.35,1.35,0,0,1,1.19-.17,2.13,2.13,0,0,0,.9.12c.19-.06.23-.3.21-.69a3.17,3.17,0,0,1,.88-2.2,3.41,3.41,0,0,1,3.52-1l-.33.3a3,3,0,0,1,.54-2.86,1.79,1.79,0,0,1,1.41-.45,1.35,1.35,0,0,1,1.16.85l-.44.09a7,7,0,0,1,.88-3.78,7.44,7.44,0,0,1,1.94-2.29,6.17,6.17,0,0,1,1.68-.94,2.28,2.28,0,0,1,.66-.17,10.54,10.54,0,0,0-2.17,1.32,7.31,7.31,0,0,0-1.78,2.25,6.74,6.74,0,0,0-.76,3.58l.12,1.89-.56-1.8c-.2-.62-1.28-.71-1.8-.2a2.45,2.45,0,0,0-.38,2.38l.12.47-.45-.16a2.91,2.91,0,0,0-3,.88,2.65,2.65,0,0,0-.75,1.83,2.27,2.27,0,0,1,0,.62.82.82,0,0,1-.5.56,2.32,2.32,0,0,1-1.19-.11.88.88,0,0,0-.79.08,1.23,1.23,0,0,0-.44.68,3.16,3.16,0,0,0,.32,1.73l.48,1.26-.87-1c-.35-.4-1.2,0-1.31.49a2.45,2.45,0,0,0,.29,1.71,7,7,0,0,0,1.89,2.38A9.88,9.88,0,0,0,120.43,200.15Z"/><path class="cls-4" d="M146.45,168.13a4,4,0,0,1-1.53-.62,4.37,4.37,0,0,1-1.4-1.21A2.87,2.87,0,0,1,143,164a2,2,0,0,1,.21-.54l.11.36a2.46,2.46,0,0,1-1.28-1.72,2.22,2.22,0,0,1,.33-1.68c.57-.83,1.24-.91,1.24-.86s-.53.28-.93,1a2,2,0,0,0-.19,1.41,2.08,2.08,0,0,0,1.06,1.35l.23.12-.12.24a1.84,1.84,0,0,0-.16.41,2.48,2.48,0,0,0,.4,1.87,4.56,4.56,0,0,0,1.2,1.17C145.93,167.75,146.49,168.05,146.45,168.13Z"/><path class="cls-4" d="M158.54,162.53a3.09,3.09,0,0,0,.36-1.9,2.13,2.13,0,0,0-1.22-1.62,2.34,2.34,0,0,0-2.48.38l-.33.31-.08-.44a4.27,4.27,0,0,0-.59-1.53,2,2,0,0,0-1.3-.93c-.83-.11-1.76.66-1.53,1.34l-.49.1a4,4,0,0,0-1.43-2.59,3.82,3.82,0,0,0-2.22-.85,5.89,5.89,0,0,0-2.18.39s.15-.17.51-.34a3.91,3.91,0,0,1,1.68-.37,4.09,4.09,0,0,1,2.48.83,4.33,4.33,0,0,1,1.65,2.87l-.49.1a1.46,1.46,0,0,1,.52-1.5,2.08,2.08,0,0,1,1.56-.5,2.46,2.46,0,0,1,1.67,1.17,4.63,4.63,0,0,1,.64,1.72l-.41-.13a2.74,2.74,0,0,1,3-.41,2.44,2.44,0,0,1,1.34,2,2.47,2.47,0,0,1-.3,1.53C158.71,162.43,158.55,162.55,158.54,162.53Z"/><path class="cls-9" d="M209.42,340.52l15.15-6.26a203.24,203.24,0,0,0-9.07-37.33c-5.45-15.06-14.4-21.83-17.2-23.66l-.05-.18-4.52-2.73-19.47-12.53c3.43,15.56-24.43,31.53-48.12-1.89L87,271.78,97.22,382.69l-9.71,49.05,98-.28v.94l20.85-.2-4.46-21.77c1.94-20.94,8.17-46.36,7.44-63.15C209.44,345.16,209.46,342.9,209.42,340.52Z"/><path class="cls-5" d="M205,384.13a4.4,4.4,0,0,0,.24-.79q.21-.85.57-2.28c.25-1,.54-2.22.82-3.64s.65-3.05.94-4.85.65-3.79.92-5.92.55-4.42.81-6.83c.43-4.83.72-10.15.73-15.74s-.34-10.91-.79-15.74c-.27-2.4-.5-4.69-.83-6.82s-.63-4.11-.95-5.92-.66-3.42-1-4.84-.57-2.65-.83-3.64-.43-1.72-.58-2.28a4.05,4.05,0,0,0-.24-.79,6.08,6.08,0,0,0,.14.81l.48,2.31c.23,1,.49,2.22.75,3.64s.61,3.05.88,4.86.62,3.77.88,5.91.52,4.41.78,6.81c.42,4.81.72,10.12.75,15.69s-.29,10.88-.69,15.69c-.25,2.41-.45,4.69-.76,6.82s-.57,4.11-.86,5.91-.6,3.43-.86,4.86-.51,2.65-.73,3.65l-.48,2.31A6.89,6.89,0,0,0,205,384.13Z"/><path class="cls-5" d="M205.27,383.34a3.07,3.07,0,0,1-.06.51c-.07.38-.15.85-.26,1.42-.24,1.23-.56,3-.94,5.23a106.91,106.91,0,0,0-1.6,17.43,81.78,81.78,0,0,0,.58,9.61,74.57,74.57,0,0,0,1.42,7.73c.23,1.1.53,2.07.76,2.93s.45,1.6.64,2.2.3,1,.41,1.38a1.66,1.66,0,0,1,.11.5,2,2,0,0,1-.21-.46c-.14-.37-.3-.82-.5-1.36s-.48-1.32-.73-2.18-.58-1.82-.83-2.92a67.3,67.3,0,0,1-1.54-7.76,74.45,74.45,0,0,1-.63-9.67,96.2,96.2,0,0,1,1.75-17.49c.43-2.21.81-4,1.12-5.21.14-.56.25-1,.35-1.41A1.89,1.89,0,0,1,205.27,383.34Z"/><path class="cls-9" d="M48,349.53l20.09-57.48s5.31-16.93,21.23-21.12l11.38,57.5-5.28,31.44Z"/><path class="cls-5" d="M104.58,313.36a1.76,1.76,0,0,1,0,.48c0,.38-.09.83-.14,1.38-.13,1.19-.36,2.92-.7,5-.65,4.24-1.84,10.06-3.29,16.45s-2.73,12.17-3.6,16.37l-1,5c-.11.53-.21,1-.29,1.35a2,2,0,0,1-.14.46,1.46,1.46,0,0,1,0-.48c.06-.37.13-.83.21-1.37.17-1.19.48-2.9.86-5,.78-4.22,2-10,3.46-16.42s2.68-12.17,3.43-16.4c.39-2.1.67-3.82.86-5,.09-.54.17-1,.23-1.36A1.48,1.48,0,0,1,104.58,313.36Z"/><path class="cls-10" d="M178.53,261.32a4,4,0,0,1,0,.76c0,.25,0,.56-.08.93s-.13.78-.21,1.24-.26,1-.42,1.53a17.31,17.31,0,0,1-.73,1.75,15.28,15.28,0,0,1-2.59,3.8,26.62,26.62,0,0,1-10,6.48,28.53,28.53,0,0,1-14.44,1.67,34.64,34.64,0,0,1-13.71-4.94,49.42,49.42,0,0,1-9.15-7.65c-2.35-2.46-4.07-4.6-5.24-6.09-.58-.76-1-1.35-1.3-1.75a4.4,4.4,0,0,1-.43-.64,4.12,4.12,0,0,1,.51.57l1.38,1.69c1.21,1.45,3,3.55,5.35,6a50.62,50.62,0,0,0,9.13,7.5A34.57,34.57,0,0,0,150.13,279a28.27,28.27,0,0,0,14.2-1.61,26.62,26.62,0,0,0,9.88-6.28,15.5,15.5,0,0,0,2.6-3.68c.33-.58.51-1.18.75-1.7s.33-1,.46-1.49.18-.86.26-1.23.09-.66.13-.91A5.25,5.25,0,0,1,178.53,261.32Z"/><g class="cls-11"><path d="M94.88,390.71c5.94-7,6.51-17,6.79-26.24.36-11.66.11-25.12.47-36.77-2.16,10.33-5.42,26.2-7,32.17,0,0,.78,6.1.82,8.48,0,2.18-.15,4.56.06,6.73.52,5.6,1.4,11.8-1.84,16.4"/></g><path class="cls-10" d="M206.83,315.91l-.25.1-.76.25-2.91.9c-1.27.39-2.82.86-4.65,1.33s-3.88,1.07-6.2,1.58-4.83,1.14-7.57,1.65-5.68,1.06-8.77,1.57c-6.2.94-13.05,1.73-20.28,2.15s-14.13.37-20.4.12c-3.13-.17-6.11-.31-8.88-.59s-5.36-.53-7.72-.82-4.47-.63-6.33-.91-3.46-.57-4.76-.83l-3-.59-.78-.16a.91.91,0,0,1-.26-.08l.27,0,.79.12,3,.49c1.3.23,2.9.5,4.76.74s4,.6,6.34.83,4.93.57,7.7.76,5.75.39,8.87.54c6.25.22,13.14.23,20.35-.16s14.05-1.19,20.24-2.1c3.09-.5,6-1,8.75-1.52s5.27-1.07,7.58-1.59,4.38-1.06,6.21-1.5,3.39-.88,4.66-1.25l2.94-.8.77-.2A1,1,0,0,1,206.83,315.91Z"/><path class="cls-10" d="M217.7,303.48a39.88,39.88,0,0,1-5.34,3.61,40,40,0,0,1-5.61,3.15,40.19,40.19,0,0,1,5.33-3.6A41.15,41.15,0,0,1,217.7,303.48Z"/><path class="cls-10" d="M103.52,318.85a8.73,8.73,0,0,1-1.67-.09c-1.07-.08-2.62-.26-4.53-.52a128.27,128.27,0,0,1-14.75-2.95,124.76,124.76,0,0,1-14.3-4.68c-1.79-.71-3.22-1.31-4.2-1.77a8.58,8.58,0,0,1-1.5-.74,11.62,11.62,0,0,1,1.58.56c1,.39,2.45.95,4.25,1.61,3.6,1.33,8.64,3,14.3,4.52s10.89,2.48,14.68,3.09c1.89.3,3.43.53,4.5.68A12.15,12.15,0,0,1,103.52,318.85Z"/><path class="cls-6" d="M132,397.51l15.24.31s22.84-8.25,27.54-7.46c4.23.71,19.71,11,22.75,13a1.94,1.94,0,0,1,.73.94h0a3.32,3.32,0,0,1-1.84,4.22l-.33.13.14.46a5.41,5.41,0,0,1,.24,1.85,2.23,2.23,0,0,1-4.15,1l.58,1a2.52,2.52,0,0,1,.32,1.39l-.05.94a2.55,2.55,0,0,1-1.75,2.28h0a2.53,2.53,0,0,1-2.66-.7c-2-2.16-6.2-6.49-9.07-7a68.46,68.46,0,0,0-9.38-.47,3.19,3.19,0,0,0-2.95,2h0c1.71.12,13.58,6.31,17.78,8.53a4.5,4.5,0,0,1,2.44,3.38c.15,1.31-.51,2.69-3.11,2.08-5.58-1.3-15.63-5.92-15.63-5.92s-5.18-1.48-8.53.89c-4.72,3.33-6.89,4.55-10.94,3.21a34.19,34.19,0,0,1-7-3.27l-14.65.85S120.06,408,132,397.51Z"/><path class="cls-7" d="M167.28,401.68c0,.09,1.62-.43,4.29-.6A22.17,22.17,0,0,1,190,409c1.73,2.05,2.46,3.56,2.54,3.51a5.22,5.22,0,0,0-.51-1.05,19.25,19.25,0,0,0-1.79-2.65,21.52,21.52,0,0,0-18.72-8,19.4,19.4,0,0,0-3.16.54A5.23,5.23,0,0,0,167.28,401.68Z"/><path class="cls-7" d="M169.7,396.13a19.05,19.05,0,0,1,4.46-.78,19.41,19.41,0,0,1,10.39,2.95,41.59,41.59,0,0,1,8.37,7.08l2.3,2.44a7.11,7.11,0,0,0,.87.86,5.78,5.78,0,0,0-.75-1c-.5-.61-1.24-1.49-2.19-2.54a38.39,38.39,0,0,0-8.38-7.24,19,19,0,0,0-10.62-2.88,13,13,0,0,0-3.32.61c-.38.11-.66.25-.85.32S169.69,396.12,169.7,396.13Z"/><path class="cls-6" d="M53.79,350.8c0-.1-7.93,35.64-9,41.92-1.21,7.34-3.21,25.21,13.16,28.69s84.34-1,84.34-1l4.91-22.57L85,389l6.8-29.9Z"/></g><g id="Speech_Bubble" data-name="Speech Bubble"><path class="cls-5" d="M55.79,57.05c0-3,1.6-4.85,3.81-4.85s3.82,1.81,3.82,4.85-1.61,4.86-3.82,4.86S55.79,60.1,55.79,57.05Zm6.62,0c0-2.55-1.15-3.95-2.81-3.95s-2.81,1.4-2.81,3.95,1.14,4,2.81,4S62.41,59.61,62.41,57.05Z"/><path class="cls-5" d="M64.82,57.05c0-3,1.6-4.85,3.81-4.85s3.82,1.81,3.82,4.85-1.61,4.86-3.82,4.86S64.82,60.1,64.82,57.05Zm6.62,0c0-2.55-1.14-3.95-2.81-3.95s-2.81,1.4-2.81,3.95,1.14,4,2.81,4S71.44,59.61,71.44,57.05Z"/><path class="cls-5" d="M76.47,52.28v9.55h-1V53.15H73.24v-.87Z"/><path class="cls-5" d="M78.75,57.05c0-3,1.6-4.85,3.81-4.85s3.82,1.81,3.82,4.85-1.61,4.86-3.82,4.86S78.75,60.1,78.75,57.05Zm6.62,0c0-2.55-1.15-3.95-2.81-3.95s-2.81,1.4-2.81,3.95,1.14,4,2.81,4S85.37,59.61,85.37,57.05Z"/><path class="cls-5" d="M90.4,52.28v9.55h-1V53.15H87.17v-.87Z"/><path class="cls-5" d="M46.39,70.61c0-3,1.6-4.86,3.81-4.86S54,67.56,54,70.61s-1.61,4.86-3.82,4.86S46.39,73.65,46.39,70.61Zm6.62,0c0-2.55-1.15-4-2.81-4s-2.82,1.41-2.82,4,1.15,4,2.82,4S53,73.16,53,70.61Z"/><path class="cls-5" d="M55.42,70.61c0-3,1.6-4.86,3.81-4.86s3.82,1.81,3.82,4.86-1.61,4.86-3.82,4.86S55.42,73.65,55.42,70.61Zm6.62,0c0-2.55-1.15-4-2.81-4s-2.81,1.41-2.81,4,1.14,4,2.81,4S62,73.16,62,70.61Z"/><path class="cls-5" d="M67.07,65.83v9.55h-1V66.7H63.84v-.87Z"/><path class="cls-5" d="M69.35,70.61c0-3,1.6-4.86,3.81-4.86S77,67.56,77,70.61s-1.61,4.86-3.82,4.86S69.35,73.65,69.35,70.61Zm6.62,0c0-2.55-1.15-4-2.81-4s-2.81,1.41-2.81,4,1.14,4,2.81,4S76,73.16,76,70.61Z"/><path class="cls-5" d="M81,65.83v9.55H80V66.7H77.77v-.87Z"/><path class="cls-5" d="M85.93,65.83v9.55h-1V66.7H82.69v-.87Z"/><path class="cls-5" d="M88.2,70.61c0-3,1.6-4.86,3.81-4.86s3.82,1.81,3.82,4.86S94.22,75.47,92,75.47,88.2,73.65,88.2,70.61Zm6.62,0c0-2.55-1.14-4-2.81-4s-2.81,1.41-2.81,4,1.14,4,2.81,4S94.82,73.16,94.82,70.61Z"/><path class="cls-5" d="M99.86,65.83v9.55h-1V66.7H96.62v-.87Z"/><path class="cls-5" d="M55.79,83.71c0-3,1.6-4.85,3.81-4.85s3.82,1.81,3.82,4.85-1.61,4.86-3.82,4.86S55.79,86.76,55.79,83.71Zm6.62,0c0-2.55-1.14-3.95-2.81-3.95s-2.81,1.4-2.81,3.95,1.15,4,2.81,4S62.41,86.27,62.41,83.71Z"/><path class="cls-5" d="M67.44,78.94v9.55h-1V79.81H64.21v-.87Z"/><path class="cls-5" d="M72.37,78.94v9.55h-1V79.81H69.14v-.87Z"/><path class="cls-5" d="M77.3,78.94v9.55h-1V79.81H74.06v-.87Z"/><path class="cls-5" d="M79.57,83.71c0-3,1.6-4.85,3.81-4.85s3.82,1.81,3.82,4.85-1.61,4.86-3.82,4.86S79.57,86.76,79.57,83.71Zm6.62,0c0-2.55-1.15-3.95-2.81-3.95s-2.81,1.4-2.81,3.95,1.14,4,2.81,4S86.19,86.27,86.19,83.71Z"/><path class="cls-5" d="M91.22,78.94v9.55h-1V79.81H88v-.87Z"/><path class="cls-5" d="M110.46,105.06s-.47,0-1.26.16a5.66,5.66,0,0,0-2.9,1.72,5.33,5.33,0,0,0-1.15,2,4.62,4.62,0,0,0,0,2.63,5.05,5.05,0,0,0,9.42,1.08,4.58,4.58,0,0,0,.6-2.56,5.39,5.39,0,0,0-.66-2.22,5.71,5.71,0,0,0-2.43-2.33,12.2,12.2,0,0,0-1.19-.44,1.43,1.43,0,0,1,.34,0,1.77,1.77,0,0,1,.39.09,3.6,3.6,0,0,1,.52.18,5.67,5.67,0,0,1,3.36,4.67,5,5,0,0,1-.61,2.76,5.83,5.83,0,0,1-2.19,2.22,5.08,5.08,0,0,1-6.28-.73,5.67,5.67,0,0,1-1.62-2.66,4.91,4.91,0,0,1,0-2.82,5.69,5.69,0,0,1,4.33-3.78,4,4,0,0,1,.55-.06,2.64,2.64,0,0,1,.4,0C110.34,105,110.46,105,110.46,105.06Z"/><path class="cls-5" d="M116,82.55l.12-.68.39-2c.08-.43.18-.92.29-1.46s.11-1.14.18-1.79.13-1.34.2-2.08a7.35,7.35,0,0,0,.05-1.16c0-.39,0-.8,0-1.23a40.32,40.32,0,0,0-1.73-12.1,42.27,42.27,0,0,0-7.44-14.34l-1.43-1.78c-.52-.57-1.08-1.11-1.63-1.68l-.83-.85a8.5,8.5,0,0,0-.87-.82L101.46,39c-.32-.26-.63-.54-1-.79l-1-.71-2.09-1.44c-.72-.46-1.49-.84-2.25-1.27L94,34.18l-.58-.31-.61-.26a37.38,37.38,0,0,0-5-1.93c-.87-.26-1.74-.58-2.64-.79l-2.75-.56c-.47-.09-.92-.21-1.4-.27l-1.42-.14c-1-.08-1.9-.22-2.87-.26a44.61,44.61,0,0,0-5.88.19L69.31,30l-.75.08-.73.15-3,.6c-1,.24-2,.58-2.95.86-.49.17-1,.28-1.47.48L59,32.76a47.77,47.77,0,0,0-5.67,2.76l-2.67,1.76-.67.44c-.22.16-.42.33-.63.5l-1.27,1-1.26,1-1.18,1.14-1.17,1.14-.59.58c-.18.2-.35.42-.53.62l-2.14,2.54L39.32,49A45.26,45.26,0,0,0,33.87,61.4a45.36,45.36,0,0,0-1.21,13.48L33,78.2c.22,1.09.43,2.18.65,3.25l.16.81.24.79.48,1.57L35,86.18l.61,1.5.62,1.5.31.75.38.71,1.49,2.83A47.53,47.53,0,0,0,42,98.62l1,1.21c.32.41.71.75,1.06,1.13.73.73,1.42,1.49,2.16,2.18l2.32,2,.58.49.61.43,1.23.85a45.85,45.85,0,0,0,5.06,3c.87.42,1.77.77,2.64,1.16l1.32.56c.44.17.9.29,1.34.44l2.68.84c.9.24,1.81.38,2.7.58a38.23,38.23,0,0,0,5.34.73l.66.07h2c.87,0,1.73,0,2.58,0L79.8,114l1.24-.12,1.22-.23,2.39-.48a7.6,7.6,0,0,0,1.16-.3l1.14-.34c.75-.24,1.51-.44,2.23-.69L91.3,111a42.24,42.24,0,0,0,13.43-9c.42-.42.85-.82,1.26-1.24l1.1-1.29,1-1.25c.17-.21.36-.4.51-.61l.44-.64,1.68-2.42c.51-.78.9-1.59,1.32-2.32.21-.37.41-.72.6-1.07a7.12,7.12,0,0,0,.51-1L114,88.2c.25-.6.51-1.14.7-1.65s.31-1,.45-1.42c.27-.84.48-1.48.62-1.93s.22-.65.22-.65,0,.23-.18.66-.33,1.1-.59,1.94l-.43,1.43c-.19.52-.44,1.06-.69,1.66s-.52,1.25-.81,1.94a7.68,7.68,0,0,1-.51,1l-.59,1.09c-.42.73-.81,1.54-1.32,2.33s-1.08,1.59-1.67,2.44l-.44.64c-.15.22-.33.41-.5.62l-1.06,1.26-1.1,1.31c-.4.42-.83.82-1.26,1.24a42.29,42.29,0,0,1-13.47,9.07l-2.13.88c-.73.25-1.49.46-2.25.7l-1.14.35a7.72,7.72,0,0,1-1.17.3l-2.41.49-1.22.24-1.26.12-2.54.26c-.86.06-1.73,0-2.6,0H73.37c-.22,0-.44,0-.66,0l-.67-.06a38.59,38.59,0,0,1-5.38-.73c-.9-.2-1.82-.34-2.73-.58l-2.7-.84c-.45-.15-.91-.27-1.36-.45l-1.32-.56c-.88-.39-1.79-.74-2.67-1.16a46.54,46.54,0,0,1-5.1-3l-1.25-.86-.62-.43-.58-.49-2.34-2c-.75-.7-1.45-1.47-2.18-2.2-.36-.38-.75-.73-1.07-1.14l-1-1.22a48.5,48.5,0,0,1-3.67-5.2l-1.51-2.85-.38-.72-.31-.75-.62-1.51-.63-1.52-.48-1.57-.48-1.59-.24-.79-.17-.82-.66-3.28-.33-3.35A45.9,45.9,0,0,1,33.49,61.3,45.82,45.82,0,0,1,39,48.8L40.9,46l2.16-2.56c.18-.21.35-.42.54-.63l.59-.58,1.19-1.15L46.56,40l1.28-1,1.27-1c.22-.17.42-.34.64-.5l.68-.45,2.7-1.77a47.06,47.06,0,0,1,5.72-2.78l1.45-.59c.48-.2,1-.32,1.49-.48,1-.29,2-.63,3-.87l3-.6.75-.15.75-.08,1.5-.15a47.4,47.4,0,0,1,5.94-.19c1,.05,1.93.19,2.89.27l1.44.15c.47.06.93.18,1.4.27l2.77.56c.91.22,1.78.54,2.67.81a38.43,38.43,0,0,1,5.06,2l.62.26c.2.09.39.21.58.31l1.16.64c.76.44,1.54.82,2.26,1.29s1.41,1,2.1,1.45l1,.71c.33.26.64.54,1,.8l1.87,1.59a8.64,8.64,0,0,1,.88.83c.28.29.56.57.83.86.55.57,1.11,1.12,1.63,1.69l1.44,1.8A42.27,42.27,0,0,1,115.73,60a40.64,40.64,0,0,1,1.68,12.17c0,.43,0,.84,0,1.24a7.4,7.4,0,0,1-.05,1.16c-.08.74-.15,1.44-.22,2.09s-.12,1.25-.21,1.79-.21,1-.31,1.46q-.27,1.29-.42,2C116.09,82.32,116,82.55,116,82.55Z"/></g><g id="Screens"><rect class="cls-10" x="240.85" y="188.44" width="190.67" height="118.08"/><path class="cls-5" d="M431.52,306.52s0-.73,0-2.13,0-3.48,0-6.19c0-5.44,0-13.43-.05-23.68,0-20.48-.06-50-.11-86.08l.21.21-190.65,0h0l.26-.26c0,41.86,0,81.77,0,118.08l-.24-.24,137.25.12,39.32.07,10.47,0h3.63l-.9,0h-2.68l-10.42,0-39.26.07-137.41.11h-.24v-.24c0-36.31,0-76.22,0-118.08v-.26h.28l190.65.06h.2v.2c0,36.16-.08,65.7-.11,86.21,0,10.23,0,18.2-.05,23.63,0,2.7,0,4.76,0,6.16S431.52,306.52,431.52,306.52Z"/><path class="cls-5" d="M431.42,200c0,.14-42.6.26-95.14.26s-95.14-.12-95.14-.26,42.59-.27,95.14-.27S431.42,199.82,431.42,200Z"/><path class="cls-5" d="M251,194.75a1.56,1.56,0,1,1-1.56-1.56A1.56,1.56,0,0,1,251,194.75Z"/><path class="cls-5" d="M256.64,194.75a1.57,1.57,0,1,1-1.56-1.56A1.56,1.56,0,0,1,256.64,194.75Z"/><circle class="cls-5" cx="260.73" cy="194.75" r="1.56"/><path class="cls-5" d="M261.65,221.09l-4.53,1.75,4.53,1.74v1.06l-5.72-2.26v-1.09l5.72-2.26Z"/><path class="cls-5" d="M266.36,216.56h1.11l-4.21,12h-1.11Z"/><path class="cls-5" d="M273.57,222.29v1.09l-5.72,2.26v-1.06l4.54-1.74-4.54-1.75V220Z"/><path class="cls-5" d="M275,226.5a.86.86,0,0,1,.87-.87.84.84,0,0,1,.84.87.85.85,0,0,1-.84.88A.87.87,0,0,1,275,226.5Z"/><path class="cls-5" d="M277.91,226.5a.86.86,0,1,1,.87.88A.85.85,0,0,1,277.91,226.5Z"/><path class="cls-5" d="M280.8,226.5a.86.86,0,0,1,.87-.87.84.84,0,0,1,.84.87.85.85,0,0,1-.84.88A.87.87,0,0,1,280.8,226.5Z"/><path class="cls-9" d="M382.05,238c0,.14-28.19.26-62.95.26s-63-.12-63-.26,28.18-.26,63-.26S382.05,237.8,382.05,238Z"/><path class="cls-5" d="M402.61,238.32a70.52,70.52,0,0,1-12.1,0,70.52,70.52,0,0,1,12.1,0Z"/><path class="cls-5" d="M420.29,238.32a84.15,84.15,0,0,1-13.22,0,84.15,84.15,0,0,1,13.22,0Z"/><path class="cls-9" d="M336.31,248.56c0,.14-17.91.26-40,.26s-40-.12-40-.26,17.91-.26,40-.26S336.31,248.41,336.31,248.56Z"/><path class="cls-9" d="M335.74,288.14c0,.14-17.91.26-40,.26s-40-.12-40-.26,17.91-.26,40-.26S335.74,288,335.74,288.14Z"/><path class="cls-5" d="M365.39,248.56c0,.14-4.88.26-10.89.26s-10.89-.12-10.89-.26,4.88-.26,10.89-.26S365.39,248.41,365.39,248.56Z"/><path class="cls-5" d="M365.16,288.14c0,.14-4.88.26-10.89.26s-10.88-.12-10.88-.26,4.87-.26,10.88-.26S365.16,288,365.16,288.14Z"/><path class="cls-9" d="M261.54,254a7,7,0,0,1-2.69.26,7.09,7.09,0,0,1-2.7-.26,7.33,7.33,0,0,1,2.7-.26A7.25,7.25,0,0,1,261.54,254Z"/><path class="cls-5" d="M280.15,254.06a31.91,31.91,0,0,1-5.86.27,31.91,31.91,0,0,1-5.86-.27,33.63,33.63,0,0,1,5.86-.26A33.63,33.63,0,0,1,280.15,254.06Z"/><path class="cls-5" d="M292.06,254.06a46.8,46.8,0,0,1-10,0,48.59,48.59,0,0,1,10,0Z"/><path class="cls-5" d="M307.14,254.06a48.68,48.68,0,0,1-10.24,0,50.54,50.54,0,0,1,10.24,0Z"/><path class="cls-5" d="M320.35,254.06a40.18,40.18,0,0,1-9.3,0,41.71,41.71,0,0,1,9.3,0Z"/><path class="cls-5" d="M364.08,254.06c0,.15-9.16.27-20.47.27s-20.47-.12-20.47-.27,9.17-.26,20.47-.26S364.08,253.92,364.08,254.06Z"/><path class="cls-9" d="M260.8,260.84a10.53,10.53,0,0,1-4.65,0,10.53,10.53,0,0,1,4.65,0Z"/><path class="cls-9" d="M261,267.91a11.39,11.39,0,0,1-4.84,0,11.39,11.39,0,0,1,4.84,0Z"/><path class="cls-9" d="M261,275.91a11.39,11.39,0,0,1-4.84,0,11.39,11.39,0,0,1,4.84,0Z"/><path class="cls-5" d="M305.09,275.54c0,.14-8.08.26-18,.26s-18.05-.12-18.05-.26,8.08-.26,18.05-.26S305.09,275.4,305.09,275.54Z"/><path class="cls-5" d="M301.93,267.91c0,.14-7.71.26-17.22.26s-17.21-.12-17.21-.26,7.71-.26,17.21-.26S301.93,267.77,301.93,267.91Z"/><path class="cls-5" d="M385.11,260.47c0,.14-26.24.26-58.61.26s-58.63-.12-58.63-.26,26.24-.26,58.63-.26S385.11,260.32,385.11,260.47Z"/><rect class="cls-10" x="263.8" y="28.84" width="80.34" height="138"/><path class="cls-5" d="M344.14,166.84s0-.23,0-.67,0-1.11,0-2c0-1.73,0-4.28,0-7.59,0-6.64,0-16.31-.07-28.51,0-24.37-.07-58.84-.11-99.26l.24.24-80.33,0h0l.26-.26c0,52.65,0,100.94-.06,138l-.2-.2,58.6.11,16.08.05,4.21,0,1.45,0s-.47,0-1.41,0l-4.17,0-16,.05-58.72.1h-.2v-.2c0-37.06,0-85.35-.06-138v-.26h.27l80.33,0h.24v.24c-.05,40.48-.09,75-.12,99.42,0,12.18-.05,21.83-.06,28.45,0,3.29,0,5.83,0,7.55,0,.85,0,1.49,0,1.94S344.14,166.84,344.14,166.84Z"/><circle class="cls-5" cx="269.47" cy="34.92" r="1.63"/><circle class="cls-5" cx="275.36" cy="34.92" r="1.63"/><path class="cls-5" d="M282.88,34.92a1.63,1.63,0,1,1-1.63-1.63A1.63,1.63,0,0,1,282.88,34.92Z"/><path class="cls-9" d="M322.06,72.56c0,.14-10.19.26-22.75.26s-22.75-.12-22.75-.26,10.19-.26,22.75-.26S322.06,72.41,322.06,72.56Z"/><path class="cls-9" d="M331.54,83.61c0,.14-12.39.26-27.68.26s-27.68-.12-27.68-.26,12.39-.26,27.68-.26S331.54,83.46,331.54,83.61Z"/><path class="cls-9" d="M333.8,124.84c0,.14-13.22.26-29.52.26s-29.51-.12-29.51-.26,13.21-.26,29.51-.26S333.8,124.69,333.8,124.84Z"/><path class="cls-9" d="M280.83,89.23a15.31,15.31,0,0,1-5.62,0,15.31,15.31,0,0,1,5.62,0Z"/><path class="cls-9" d="M300.22,89.34a35.38,35.38,0,0,1-6.11.26,35.38,35.38,0,0,1-6.11-.26,36.62,36.62,0,0,1,6.11-.26A36.62,36.62,0,0,1,300.22,89.34Z"/><path class="cls-9" d="M312.62,89.34a52.83,52.83,0,0,1-10.47,0,52.83,52.83,0,0,1,10.47,0Z"/><path class="cls-9" d="M280.06,96.4a6,6,0,0,1-2.43.26,5.91,5.91,0,0,1-2.42-.26,5.91,5.91,0,0,1,2.42-.26A6,6,0,0,1,280.06,96.4Z"/><path class="cls-9" d="M280.25,103.77a12.34,12.34,0,0,1-5,0,12.34,12.34,0,0,1,5,0Z"/><path class="cls-9" d="M280.25,112.1a12.34,12.34,0,0,1-5,0,12.34,12.34,0,0,1,5,0Z"/><path class="cls-9" d="M326.19,111.71c0,.15-8.42.26-18.8.26s-18.8-.11-18.8-.26,8.41-.26,18.8-.26S326.19,111.57,326.19,111.71Z"/><path class="cls-9" d="M322.9,103.77c0,.14-8,.26-17.93.26s-17.94-.12-17.94-.26,8-.26,17.94-.26S322.9,103.62,322.9,103.77Z"/><path class="cls-9" d="M283.92,135.84a12.34,12.34,0,0,1-5,0,12.34,12.34,0,0,1,5,0Z"/><path class="cls-9" d="M283.92,144.18a12.34,12.34,0,0,1-5,0,12.34,12.34,0,0,1,5,0Z"/><path class="cls-9" d="M329.86,143.79c0,.14-8.42.26-18.8.26s-18.8-.12-18.8-.26,8.41-.26,18.8-.26S329.86,143.65,329.86,143.79Z"/><path class="cls-9" d="M326.57,135.84c0,.15-8,.26-17.93.26s-17.93-.11-17.93-.26,8-.26,17.93-.26S326.57,135.7,326.57,135.84Z"/><path class="cls-9" d="M336.23,96c0,.15-10.93.26-24.4.26s-24.41-.11-24.41-.26,10.93-.26,24.41-.26S336.23,95.87,336.23,96Z"/><path class="cls-9" d="M343.38,41.3c0,.14-17.64.26-39.39.26s-39.4-.12-39.4-.26S282.23,41,304,41,343.38,41.15,343.38,41.3Z"/><path class="cls-9" d="M293.18,65.89a65.27,65.27,0,0,1-8.32.26,65.4,65.4,0,0,1-8.32-.26,67.7,67.7,0,0,1,8.32-.26A67.56,67.56,0,0,1,293.18,65.89Z"/><path class="cls-9" d="M283.76,50.82a29.76,29.76,0,0,1-7.85,0,29.76,29.76,0,0,1,7.85,0Z"/></g><g id="Device"><path class="cls-4" d="M326.92,432.28H187.47l18-97.86a7.3,7.3,0,0,1,7.19-6H338a7.31,7.31,0,0,1,7.18,8.69Z"/><path class="cls-4" d="M187.47,432.28H134.58l.21-.15a28.57,28.57,0,0,1,16.31-5.71l37.83-1.11Z"/><path class="cls-5" d="M221,328.56s-.39-.07-1.13-.08a7.09,7.09,0,0,0-3.1.77,9.62,9.62,0,0,0-3.72,3.38,18.22,18.22,0,0,0-2.27,6.33c-.46,2.47-.86,5.22-1.35,8.16s-1,6.06-1.66,9.35c-1.22,6.57-2.66,13.79-4.22,21.34-3.15,15.12-6.06,28.78-8,38.71-1,5-1.7,9-2.2,11.77-.25,1.37-.44,2.44-.58,3.21l-.17.83a1.24,1.24,0,0,1-.07.28,1.27,1.27,0,0,1,0-.29c0-.22.07-.49.11-.84.12-.77.28-1.85.49-3.22.44-2.79,1.12-6.83,2-11.81,1.81-9.95,4.67-23.63,7.82-38.74,1.56-7.56,3-14.76,4.26-21.33.63-3.28,1.18-6.41,1.7-9.34s.93-5.66,1.42-8.15a17.92,17.92,0,0,1,2.39-6.41,9.62,9.62,0,0,1,3.87-3.41,6.8,6.8,0,0,1,3.19-.69A4.25,4.25,0,0,1,221,328.56Z"/><path class="cls-12" d="M279.86,378.15a6.75,6.75,0,1,1-6.74-6.74A6.75,6.75,0,0,1,279.86,378.15Z"/></g><g id="Desk"><path class="cls-5" d="M454.64,432.28c0,.15-101.78.27-227.31.27S0,432.43,0,432.28,101.76,432,227.33,432,454.64,432.14,454.64,432.28Z"/></g><g id="Plant"><path class="cls-1" d="M443.89,360.29s0-.08-.09-.22-.2-.37-.34-.61c-.3-.53-.77-1.31-1.44-2.26a24.4,24.4,0,0,0-7.14-6.75,17.52,17.52,0,0,0-6.41-2.35,15.9,15.9,0,0,0-7.79.81,12.64,12.64,0,0,0-6.66,5.46c-1.53,2.67-2,5.81-2.92,8.81a16.23,16.23,0,0,1-1.86,4.2,12.87,12.87,0,0,1-3.17,3.12c-1.19.87-2.43,1.67-3.56,2.59a15.08,15.08,0,0,0-2.9,3.14,19.33,19.33,0,0,0-3,7.25,26,26,0,0,0-.4,6.81A52.29,52.29,0,0,0,398,400c.29,1.12.54,2,.71,2.58s.28.89.29.88a5.12,5.12,0,0,0-.18-.91c-.15-.64-.36-1.51-.62-2.6a56.68,56.68,0,0,1-1.56-9.67,25.22,25.22,0,0,1,.45-6.7,19.06,19.06,0,0,1,2.94-7.06,15.1,15.1,0,0,1,2.81-3c1.1-.89,2.34-1.68,3.56-2.57a13.14,13.14,0,0,0,3.29-3.24,16.53,16.53,0,0,0,1.94-4.35c.9-3.05,1.39-6.14,2.86-8.7a12.17,12.17,0,0,1,6.37-5.25,15.56,15.56,0,0,1,7.55-.84,17.22,17.22,0,0,1,6.28,2.24,24.91,24.91,0,0,1,7.17,6.55c.69.92,1.19,1.67,1.52,2.19A8.45,8.45,0,0,0,443.89,360.29Z"/><path class="cls-1" d="M404.68,371.29c.82-.77,1.22-.24,2.33,0a6.9,6.9,0,0,1,3,1.49A12.62,12.62,0,0,1,414.1,386a9.86,9.86,0,0,1-9.05-14.8"/><path class="cls-1" d="M438.6,355.85c.41-1.05,1-.74,2.1-1a7,7,0,0,1,3.35.06,12.63,12.63,0,0,1,9.39,10.2,9.85,9.85,0,0,1-14.54-9.47"/><path class="cls-1" d="M397.2,392.19a11.38,11.38,0,0,1,17.89.87,14.1,14.1,0,0,1-9.28,3.65,14.32,14.32,0,0,1-9.34-3.78"/><path class="cls-1" d="M400,376.58a11.53,11.53,0,0,1-11.64-13.76,10.35,10.35,0,0,1,12,13.64"/><path class="cls-1" d="M411.93,358.23a11.53,11.53,0,0,1-15.55-9.1A10.34,10.34,0,0,1,412.25,358"/><path class="cls-1" d="M415.93,352.24a11.52,11.52,0,0,1,15.55,9.11,10.35,10.35,0,0,1-15.87-8.87"/><path class="cls-1" d="M420.7,349a11.54,11.54,0,0,1-6.13-16.95,10.35,10.35,0,0,1,6.53,17"/><path class="cls-1" d="M432.93,349.6a11.53,11.53,0,0,1,9.41-15.37,10.35,10.35,0,0,1-9.18,15.7"/><polyline class="cls-5" points="383.64 432.25 377.13 391.36 427.05 391.97 422.12 431.72"/><path class="cls-9" d="M405.18,383.89a8.51,8.51,0,0,0,8.29.71,9,9,0,0,0,4.53-7.17,10.18,10.18,0,0,0-8.27-.42,10,10,0,0,0-5.5,6.15"/><path class="cls-9" d="M428,392.7a8.54,8.54,0,0,0,8.29.7,9,9,0,0,0,4.53-7.16A9.58,9.58,0,0,0,427.05,392"/><path class="cls-9" d="M415.19,373a8.53,8.53,0,0,0,6.54,5.14,9,9,0,0,0,7.72-3.49,9.58,9.58,0,0,0-14.65-2.79"/><path class="cls-9" d="M423.52,383.22a8.53,8.53,0,0,0-7.45,3.69,9,9,0,0,0-.17,8.48,10.2,10.2,0,0,0,7.29-3.92,10.09,10.09,0,0,0,1.53-8.11"/><path class="cls-9" d="M431.56,399.32a8.52,8.52,0,0,0,.2,8.31,9,9,0,0,0,7.61,3.73,10.16,10.16,0,0,0-.47-8.26c-1.31-2.39-3.68-3.57-6.64-4.24"/><path class="cls-9" d="M444.83,401.21a6,6,0,0,0-2-1.26,8.41,8.41,0,0,0-2.71-.47,31.53,31.53,0,0,0-3.68.21,10.76,10.76,0,0,1-4.54-.38,7,7,0,0,1-3.74-3.62,20.76,20.76,0,0,1-1.62-5.52,15.88,15.88,0,0,0-1.92-5.67,20.21,20.21,0,0,0-4.22-4.29,20.61,20.61,0,0,1-4-4.1,13.48,13.48,0,0,1-2-9.4,13.07,13.07,0,0,1,2.45-6,10.08,10.08,0,0,1,1.2-1.32,3.09,3.09,0,0,1,.47-.4,2.83,2.83,0,0,1-.4.48,13.22,13.22,0,0,0-1.1,1.36,13.42,13.42,0,0,0-2.24,6,13.22,13.22,0,0,0,2,9.07,20.44,20.44,0,0,0,4,4,20.39,20.39,0,0,1,4.33,4.41,16.07,16.07,0,0,1,2,5.85,20.6,20.6,0,0,0,1.54,5.4,6.54,6.54,0,0,0,3.46,3.43,10.6,10.6,0,0,0,4.35.42,30.56,30.56,0,0,1,3.72-.13,8.22,8.22,0,0,1,2.77.58,4.61,4.61,0,0,1,1.51,1,2.36,2.36,0,0,1,.3.35C444.81,401.16,444.84,401.21,444.83,401.21Z"/><path class="cls-9" d="M444.83,401.21a6,6,0,0,0-2-1.26,8.41,8.41,0,0,0-2.71-.47,31.53,31.53,0,0,0-3.68.21,10.76,10.76,0,0,1-4.54-.38,7,7,0,0,1-3.74-3.62,20.76,20.76,0,0,1-1.62-5.52,15.88,15.88,0,0,0-1.92-5.67,20.21,20.21,0,0,0-4.22-4.29,20.61,20.61,0,0,1-4-4.1,13.48,13.48,0,0,1-2-9.4,13.07,13.07,0,0,1,2.45-6,10.08,10.08,0,0,1,1.2-1.32,3.09,3.09,0,0,1,.47-.4,2.83,2.83,0,0,1-.4.48,13.22,13.22,0,0,0-1.1,1.36,13.42,13.42,0,0,0-2.24,6,13.22,13.22,0,0,0,2,9.07,20.44,20.44,0,0,0,4,4,20.39,20.39,0,0,1,4.33,4.41,16.07,16.07,0,0,1,2,5.85,20.6,20.6,0,0,0,1.54,5.4,6.54,6.54,0,0,0,3.46,3.43,10.6,10.6,0,0,0,4.35.42,30.56,30.56,0,0,1,3.72-.13,8.22,8.22,0,0,1,2.77.58,4.61,4.61,0,0,1,1.51,1,2.36,2.36,0,0,1,.3.35C444.81,401.16,444.84,401.21,444.83,401.21Z"/><path class="cls-9" d="M349.53,405.4A12.63,12.63,0,0,0,332.44,393a21.07,21.07,0,0,0,16.64,12.28"/><path class="cls-9" d="M346.24,407.14c-2.44,2.68-2.29,7-.54,10.17s4.75,5.44,7.76,7.46a16.4,16.4,0,0,0-7.06-18.6"/><path class="cls-9" d="M358.06,394.57a14.58,14.58,0,0,0,16.56,13c-.94-3.92-2.52-7.88-5.55-10.54s-7.81-3.65-11.16-1.41"/><path class="cls-9" d="M358,390.57c-.61-3.58-4.13-6.17-7.74-6.5s-7.18,1.2-10.07,3.38A13.1,13.1,0,0,0,358,389.22"/><path class="cls-9" d="M339.39,421c-3.43,2.93-4.29,8.14-2.87,12.41s4.77,7.69,8.51,10.19c1.45-4.24,2.35-8.78,1.59-13.19s-3.42-8.68-7.52-10.48"/><path class="cls-9" d="M357.43,380.54a10.53,10.53,0,0,1,16.68-1,9.1,9.1,0,0,1-16.42.42"/><path class="cls-9" d="M361.63,370.24a13.68,13.68,0,0,1-17.46-10.7,30.8,30.8,0,0,1,8.25.12,13.44,13.44,0,0,1,7.3,3.59,7.26,7.26,0,0,1,1.91,7"/><path class="cls-9" d="M369.55,367.58a11.19,11.19,0,0,1-.07-17.27,23.25,23.25,0,0,1,4.89,10.43,8.77,8.77,0,0,1,0,4.32,4,4,0,0,1-3,2.83"/><g class="cls-13"><path d="M349.53,405.4A12.63,12.63,0,0,0,332.44,393a21.07,21.07,0,0,0,16.64,12.28"/></g><g class="cls-13"><path d="M346.24,407.14c-2.44,2.68-2.29,7-.54,10.17s4.75,5.44,7.76,7.46a16.4,16.4,0,0,0-7.06-18.6"/></g><g class="cls-13"><path d="M358.06,394.57a14.58,14.58,0,0,0,16.56,13c-.94-3.92-2.52-7.88-5.55-10.54s-7.81-3.65-11.16-1.41"/></g><g class="cls-13"><path d="M358,390.57c-.61-3.58-4.13-6.17-7.74-6.5s-7.18,1.2-10.07,3.38A13.1,13.1,0,0,0,358,389.22"/></g><g class="cls-13"><path d="M339.39,421c-3.43,2.93-4.29,8.14-2.87,12.41s4.77,7.69,8.51,10.19c1.45-4.24,2.35-8.78,1.59-13.19s-3.42-8.68-7.52-10.48"/></g><g class="cls-13"><path d="M357.43,380.54a10.53,10.53,0,0,1,16.68-1,9.1,9.1,0,0,1-16.42.42"/></g><g class="cls-13"><path d="M361.63,370.24a13.68,13.68,0,0,1-17.46-10.7,30.8,30.8,0,0,1,8.25.12,13.44,13.44,0,0,1,7.3,3.59,7.26,7.26,0,0,1,1.91,7"/></g><g class="cls-13"><path d="M369.55,367.58a11.19,11.19,0,0,1-.07-17.27,23.25,23.25,0,0,1,4.89,10.43,8.77,8.77,0,0,1,0,4.32,4,4,0,0,1-3,2.83"/></g><path class="cls-9" d="M383.24,392.68a1,1,0,0,1,0-.28c0-.22,0-.49.05-.83,0-.72.12-1.78.14-3.15a28.22,28.22,0,0,0-1.86-11.35,17.3,17.3,0,0,0-4.56-6.42,12.19,12.19,0,0,0-8.3-3,10.39,10.39,0,0,0-4.68,1.17,9.38,9.38,0,0,0-3.62,3.46c-1.81,3-2.26,6.73-2.1,10.43s.66,7.4.25,11a16.82,16.82,0,0,1-1.37,5.09,10.6,10.6,0,0,1-3.07,4,15.15,15.15,0,0,1-4.27,2.18,21.94,21.94,0,0,0-4,1.83,14.63,14.63,0,0,0-5.29,5.77,14,14,0,0,0-1.53,6.31,14.84,14.84,0,0,0,.8,4.88,17.67,17.67,0,0,0,1.89,3.79s-.07-.06-.18-.21a7.5,7.5,0,0,1-.49-.67,13.62,13.62,0,0,1-1.42-2.84,14.69,14.69,0,0,1-.9-5,14.18,14.18,0,0,1,1.49-6.48,14.93,14.93,0,0,1,5.4-6c2.46-1.64,5.72-2.05,8.23-4s3.84-5.34,4.22-8.78-.13-7.13-.26-10.89.29-7.61,2.19-10.73a9.81,9.81,0,0,1,3.83-3.63,10.9,10.9,0,0,1,4.91-1.22,12.69,12.69,0,0,1,8.61,3.21,17.7,17.7,0,0,1,4.62,6.62,23.61,23.61,0,0,1,1.57,6.47,35.74,35.74,0,0,1,.14,5c-.06,1.38-.16,2.44-.24,3.16,0,.34-.08.61-.1.82A1,1,0,0,1,383.24,392.68Z"/><g class="cls-13"><path class="cls-9" d="M383.24,392.68a1,1,0,0,1,0-.28c0-.22,0-.49.05-.83,0-.72.12-1.78.14-3.15a28.22,28.22,0,0,0-1.86-11.35,17.3,17.3,0,0,0-4.56-6.42,12.19,12.19,0,0,0-8.3-3,10.39,10.39,0,0,0-4.68,1.17,9.38,9.38,0,0,0-3.62,3.46c-1.81,3-2.26,6.73-2.1,10.43s.66,7.4.25,11a16.82,16.82,0,0,1-1.37,5.09,10.6,10.6,0,0,1-3.07,4,15.15,15.15,0,0,1-4.27,2.18,21.94,21.94,0,0,0-4,1.83,14.63,14.63,0,0,0-5.29,5.77,14,14,0,0,0-1.53,6.31,14.84,14.84,0,0,0,.8,4.88,17.67,17.67,0,0,0,1.89,3.79s-.07-.06-.18-.21a7.5,7.5,0,0,1-.49-.67,13.62,13.62,0,0,1-1.42-2.84,14.69,14.69,0,0,1-.9-5,14.18,14.18,0,0,1,1.49-6.48,14.93,14.93,0,0,1,5.4-6c2.46-1.64,5.72-2.05,8.23-4s3.84-5.34,4.22-8.78-.13-7.13-.26-10.89.29-7.61,2.19-10.73a9.81,9.81,0,0,1,3.83-3.63,10.9,10.9,0,0,1,4.91-1.22,12.69,12.69,0,0,1,8.61,3.21,17.7,17.7,0,0,1,4.62,6.62,23.61,23.61,0,0,1,1.57,6.47,35.74,35.74,0,0,1,.14,5c-.06,1.38-.16,2.44-.24,3.16,0,.34-.08.61-.1.82A1,1,0,0,1,383.24,392.68Z"/></g><path class="cls-9" d="M455.93,383.76a10.73,10.73,0,0,0,.75-3.66,9.14,9.14,0,0,0-1-4.22,9,9,0,0,0-7.28-4.8,10.41,10.41,0,0,0-3.59.42c-2.45.64-4.87,2-7.76,2.61a9.29,9.29,0,0,1-4.5-.11,6.8,6.8,0,0,1-3.67-2.93c-1.74-2.71-2.23-6.1-4.34-8.59a8.52,8.52,0,0,0-3.94-2.58,11.14,11.14,0,0,0-4.61-.47,11.85,11.85,0,0,0-7.66,4,18.07,18.07,0,0,0-3.8,7,21.15,21.15,0,0,0-.85,7,76.82,76.82,0,0,0,1.29,10.2c.2,1.16.36,2.09.48,2.76,0,.29.08.53.11.72a2.43,2.43,0,0,1,0,.25s0-.08-.08-.24l-.16-.71-.57-2.74a69.55,69.55,0,0,1-1.48-10.23,21.46,21.46,0,0,1,.81-7.11,18.26,18.26,0,0,1,3.86-7.24,13.61,13.61,0,0,1,3.5-2.81,12.13,12.13,0,0,1,9.31-.89,9.08,9.08,0,0,1,4.19,2.74c2.22,2.67,2.7,6.08,4.37,8.65a6.18,6.18,0,0,0,3.38,2.72,8.62,8.62,0,0,0,4.25.12c2.78-.54,5.21-1.91,7.73-2.55a11,11,0,0,1,3.74-.41,9.3,9.3,0,0,1,3.34.94,9.1,9.1,0,0,1,4.18,4.14,9.28,9.28,0,0,1,.91,4.36,8.71,8.71,0,0,1-.54,2.77A5.13,5.13,0,0,1,455.93,383.76Z"/><path class="cls-9" d="M426.74,365.64a9.68,9.68,0,0,0,8.9.59,9,9,0,0,0,4.53-7.17,9.58,9.58,0,0,0-13.77,5.74"/><path class="cls-9" d="M436.2,374.23a9.66,9.66,0,0,0,4.13,7.9,9,9,0,0,0,8.48.15,10.19,10.19,0,0,0-3.95-7.29,10.08,10.08,0,0,0-8.11-1.49"/><path class="cls-9" d="M452.62,372.32a9.71,9.71,0,0,0,8.91-.36,9,9,0,0,0,3.75-7.61,9.59,9.59,0,0,0-13.09,7.17"/><path class="cls-9" d="M413,360c-2.4-2.07-4-5.69-3.54-8.41a9,9,0,0,1,5.5-6.44,9.58,9.58,0,0,1-1.4,14.85"/><path class="cls-9" d="M348.84,348.2a1,1,0,0,1,.1-.22l.33-.61c.3-.53.77-1.31,1.44-2.26a24.46,24.46,0,0,1,7.15-6.75,17.45,17.45,0,0,1,6.41-2.35,15.87,15.87,0,0,1,7.78.81,12.66,12.66,0,0,1,6.67,5.46c1.53,2.67,2,5.81,2.91,8.81a15.92,15.92,0,0,0,1.87,4.2,12.83,12.83,0,0,0,3.16,3.12c1.19.88,2.44,1.67,3.57,2.59a15.57,15.57,0,0,1,2.89,3.14,19.33,19.33,0,0,1,3,7.25,25.62,25.62,0,0,1,.4,6.82,52.46,52.46,0,0,1-1.74,9.69c-.3,1.12-.55,2-.72,2.58a5.16,5.16,0,0,1-.29.88,5.12,5.12,0,0,1,.18-.91c.16-.64.36-1.51.62-2.6a55.54,55.54,0,0,0,1.57-9.67,25.67,25.67,0,0,0-.46-6.7,18.79,18.79,0,0,0-2.94-7.05,14.61,14.61,0,0,0-2.81-3c-1.1-.89-2.34-1.68-3.56-2.57a13,13,0,0,1-3.29-3.24,16.18,16.18,0,0,1-1.93-4.35c-.91-3.05-1.4-6.14-2.87-8.7a12.17,12.17,0,0,0-6.37-5.25,15.54,15.54,0,0,0-7.55-.84,17.22,17.22,0,0,0-6.28,2.24,24.91,24.91,0,0,0-7.17,6.55c-.69.92-1.19,1.67-1.52,2.19A5.21,5.21,0,0,1,348.84,348.2Z"/><path class="cls-9" d="M388.06,359.2c-.83-.77-1.23-.24-2.34,0a6.9,6.9,0,0,0-3,1.49,12.62,12.62,0,0,0-4.09,13.25,9.85,9.85,0,0,0,9.05-14.8"/><path class="cls-9" d="M354.13,343.76c-.41-1.05-1-.74-2.09-1a7,7,0,0,0-3.35.06,12.64,12.64,0,0,0-9.4,10.21,9.86,9.86,0,0,0,14.54-9.48"/><path class="cls-9" d="M395.53,380.1a11.37,11.37,0,0,0-17.88.87,14.06,14.06,0,0,0,9.27,3.65,14.36,14.36,0,0,0,9.34-3.77"/><path class="cls-9" d="M392.74,364.49a11.53,11.53,0,0,0,11.65-13.76,10.36,10.36,0,0,0-12,13.65"/><path class="cls-9" d="M380.8,346.14a11.54,11.54,0,0,0,15.56-9.1,10.35,10.35,0,0,0-15.88,8.87"/><path class="cls-9" d="M376.8,340.15a11.52,11.52,0,0,0-15.55,9.11,10.35,10.35,0,0,0,15.87-8.87"/><path class="cls-9" d="M372,336.93A11.52,11.52,0,0,0,378.16,320a10.35,10.35,0,0,0-6.53,17"/><path class="cls-9" d="M359.8,337.51a11.52,11.52,0,0,0-9.41-15.37,10.35,10.35,0,0,0,9.19,15.7"/><polygon class="cls-5" points="376.49 427.51 380.31 432.25 427.29 432.25 430.49 427.51 376.49 427.51"/><path class="cls-4" d="M429.46,427.47c0,.15-11.55.27-25.78.27s-25.79-.12-25.79-.27,11.54-.27,25.79-.27S429.46,427.32,429.46,427.47Z"/><path class="cls-4" d="M424.18,409.63a1.82,1.82,0,0,1-.3.39,10.88,10.88,0,0,1-.95,1,17.35,17.35,0,0,1-4.2,2.91,18.5,18.5,0,0,1-7.33,1.89,17.83,17.83,0,0,1-4.49-.38,26.57,26.57,0,0,1-4.57-1.51c-3-1.29-5.78-2.76-8.47-3.62a14.53,14.53,0,0,0-7.3-.7,9.59,9.59,0,0,0-4.49,2.08c-.89.78-1.23,1.37-1.28,1.33a2.18,2.18,0,0,1,.24-.42,7.22,7.22,0,0,1,.9-1.07,9.31,9.31,0,0,1,4.55-2.3,14.66,14.66,0,0,1,7.54.61c2.74.84,5.52,2.31,8.52,3.59a26.44,26.44,0,0,0,4.48,1.49,17.2,17.2,0,0,0,4.35.4,18.68,18.68,0,0,0,7.19-1.73A22.1,22.1,0,0,0,424.18,409.63Z"/><path class="cls-4" d="M424.65,406s-.1.14-.33.37a12.09,12.09,0,0,1-1,.94A19.44,19.44,0,0,1,419,410a20.16,20.16,0,0,1-11.89,1.47,30.23,30.23,0,0,1-4.64-1.32c-3.1-1.12-5.95-2.42-8.67-3.18a17.15,17.15,0,0,0-7.37-.66,10.91,10.91,0,0,0-4.65,1.77c-1,.69-1.4,1.21-1.44,1.17s.08-.14.29-.39a8.47,8.47,0,0,1,1-.95,10.78,10.78,0,0,1,4.72-2,17.11,17.11,0,0,1,7.57.56c2.77.75,5.64,2,8.71,3.15a30.17,30.17,0,0,0,4.56,1.3,19.45,19.45,0,0,0,4.38.33,20.57,20.57,0,0,0,7.25-1.62A25.39,25.39,0,0,0,424.65,406Z"/></g></g></svg>